%FSLAX45Y45*%
G04 Gerber Fmt 4.5, Leading zero omitted, Abs format (unit mm)*
G04 Created by KiCad (PCBNEW (5.1.8)-1) date 2021-04-24 14:29:43*
%MOMM*%
%LPD*%
G01*
G04 APERTURE LIST*
%TA.AperFunction,Profile*%
%ADD10C,0.150000*%
%TD*%
%ADD11C,0.200000*%
%ADD12C,0.300000*%
G04 APERTURE END LIST*
D10*
X3630000Y-5840000D02*
G75*
G02*
X3320000Y-6150000I-310000J0D01*
G01*
X3340000Y-1590000D02*
G75*
G02*
X3630000Y-1880000I0J-290000D01*
G01*
X2000000Y-1590000D02*
X1590600Y-1991800D01*
X3630000Y-5840000D02*
X3630000Y-1880000D01*
X1850000Y-6150000D02*
X3320000Y-6150000D01*
X3340000Y-1590000D02*
X2000000Y-1590000D01*
X1590600Y-5901800D02*
X1850000Y-6150000D01*
X1590600Y-1991800D02*
X1590600Y-5901800D01*
X3440600Y-1971800D02*
G75*
G03*
X3440600Y-1971800I-110000J0D01*
G01*
D11*
X1710000Y-2170000D02*
X1750000Y-2210000D01*
X1750000Y-2170000D02*
X1710000Y-2210000D01*
X1710000Y-3620000D02*
X1750000Y-3660000D01*
X1750000Y-3620000D02*
X1710000Y-3660000D01*
X1720000Y-2940000D02*
X1760000Y-2980000D01*
X1760000Y-2940000D02*
X1720000Y-2980000D01*
X1812000Y-5041600D02*
X1852000Y-5081600D01*
X1852000Y-5041600D02*
X1812000Y-5081600D01*
X1964400Y-5803600D02*
X2004400Y-5843600D01*
X2004400Y-5803600D02*
X1964400Y-5843600D01*
X2142200Y-1942800D02*
X2182200Y-1982800D01*
X2182200Y-1942800D02*
X2142200Y-1982800D01*
X2294600Y-5041600D02*
X2334600Y-5081600D01*
X2334600Y-5041600D02*
X2294600Y-5081600D01*
X2396200Y-3466800D02*
X2436200Y-3506800D01*
X2436200Y-3466800D02*
X2396200Y-3506800D01*
X2548600Y-1866600D02*
X2588600Y-1906600D01*
X2588600Y-1866600D02*
X2548600Y-1906600D01*
X2828000Y-2095200D02*
X2868000Y-2135200D01*
X2868000Y-2095200D02*
X2828000Y-2135200D01*
X2878800Y-5956000D02*
X2918800Y-5996000D01*
X2918800Y-5956000D02*
X2878800Y-5996000D01*
X3082000Y-2323800D02*
X3122000Y-2363800D01*
X3122000Y-2323800D02*
X3082000Y-2363800D01*
X3220000Y-2670000D02*
X3260000Y-2710000D01*
X3260000Y-2670000D02*
X3220000Y-2710000D01*
X3220000Y-2930000D02*
X3260000Y-2970000D01*
X3260000Y-2930000D02*
X3220000Y-2970000D01*
X3220000Y-3180000D02*
X3260000Y-3220000D01*
X3260000Y-3180000D02*
X3220000Y-3220000D01*
X3220000Y-3430000D02*
X3260000Y-3470000D01*
X3260000Y-3430000D02*
X3220000Y-3470000D01*
X3220000Y-3720000D02*
X3260000Y-3760000D01*
X3260000Y-3720000D02*
X3220000Y-3760000D01*
X3310600Y-4736800D02*
X3350600Y-4776800D01*
X3350600Y-4736800D02*
X3310600Y-4776800D01*
X3310600Y-5295600D02*
X3350600Y-5335600D01*
X3350600Y-5295600D02*
X3310600Y-5335600D01*
X3336000Y-4152600D02*
X3376000Y-4192600D01*
X3376000Y-4152600D02*
X3336000Y-4192600D01*
X3437600Y-2323800D02*
X3477600Y-2363800D01*
X3477600Y-2323800D02*
X3437600Y-2363800D01*
X3145600Y-5751800D02*
X3185600Y-5791800D01*
X3185600Y-5751800D02*
X3145600Y-5791800D01*
X3193927Y-5635127D02*
X3233927Y-5675127D01*
X3233927Y-5635127D02*
X3193927Y-5675127D01*
X3193927Y-5868473D02*
X3233927Y-5908473D01*
X3233927Y-5868473D02*
X3193927Y-5908473D01*
X3310600Y-5586800D02*
X3350600Y-5626800D01*
X3350600Y-5586800D02*
X3310600Y-5626800D01*
X3310600Y-5916800D02*
X3350600Y-5956800D01*
X3350600Y-5916800D02*
X3310600Y-5956800D01*
X3427272Y-5635127D02*
X3467272Y-5675127D01*
X3467272Y-5635127D02*
X3427272Y-5675127D01*
X3427272Y-5868473D02*
X3467272Y-5908473D01*
X3467272Y-5868473D02*
X3427272Y-5908473D01*
X3475600Y-5751800D02*
X3515600Y-5791800D01*
X3515600Y-5751800D02*
X3475600Y-5791800D01*
X1945600Y-4051800D02*
X1985600Y-4091800D01*
X1985600Y-4051800D02*
X1945600Y-4091800D01*
X1993927Y-3935127D02*
X2033927Y-3975127D01*
X2033927Y-3935127D02*
X1993927Y-3975127D01*
X1993927Y-4168473D02*
X2033927Y-4208473D01*
X2033927Y-4168473D02*
X1993927Y-4208473D01*
X2110600Y-3886800D02*
X2150600Y-3926800D01*
X2150600Y-3886800D02*
X2110600Y-3926800D01*
X2110600Y-4216800D02*
X2150600Y-4256800D01*
X2150600Y-4216800D02*
X2110600Y-4256800D01*
X2227273Y-3935127D02*
X2267273Y-3975127D01*
X2267273Y-3935127D02*
X2227273Y-3975127D01*
X2227273Y-4168473D02*
X2267273Y-4208473D01*
X2267273Y-4168473D02*
X2227273Y-4208473D01*
X2275600Y-4051800D02*
X2315600Y-4091800D01*
X2315600Y-4051800D02*
X2275600Y-4091800D01*
X3145600Y-1951800D02*
X3185600Y-1991800D01*
X3185600Y-1951800D02*
X3145600Y-1991800D01*
X3193927Y-1835127D02*
X3233927Y-1875127D01*
X3233927Y-1835127D02*
X3193927Y-1875127D01*
X3193927Y-2068473D02*
X3233927Y-2108473D01*
X3233927Y-2068473D02*
X3193927Y-2108473D01*
X3310600Y-1786800D02*
X3350600Y-1826800D01*
X3350600Y-1786800D02*
X3310600Y-1826800D01*
X3310600Y-2116800D02*
X3350600Y-2156800D01*
X3350600Y-2116800D02*
X3310600Y-2156800D01*
X3427272Y-1835127D02*
X3467272Y-1875127D01*
X3467272Y-1835127D02*
X3427272Y-1875127D01*
X3427272Y-2068473D02*
X3467272Y-2108473D01*
X3467272Y-2068473D02*
X3427272Y-2108473D01*
X3475600Y-1951800D02*
X3515600Y-1991800D01*
X3515600Y-1951800D02*
X3475600Y-1991800D01*
X2958100Y-2574000D02*
G75*
G03*
X2958100Y-2574000I-38100J0D01*
G01*
X2958100Y-2828000D02*
G75*
G03*
X2958100Y-2828000I-38100J0D01*
G01*
X2958100Y-3082000D02*
G75*
G03*
X2958100Y-3082000I-38100J0D01*
G01*
X2958100Y-3336000D02*
G75*
G03*
X2958100Y-3336000I-38100J0D01*
G01*
X2958100Y-3590000D02*
G75*
G03*
X2958100Y-3590000I-38100J0D01*
G01*
X2729600Y-4692800D02*
X2729600Y-4784800D01*
X2683600Y-4738800D02*
X2775600Y-4738800D01*
X2729600Y-4942800D02*
X2729600Y-5034800D01*
X2683600Y-4988800D02*
X2775600Y-4988800D01*
X2729600Y-5142800D02*
X2729600Y-5234800D01*
X2683600Y-5188800D02*
X2775600Y-5188800D01*
X2729600Y-5392800D02*
X2729600Y-5484800D01*
X2683600Y-5438800D02*
X2775600Y-5438800D01*
X2164956Y-2445156D02*
X2164956Y-2374444D01*
X2094244Y-2374444D01*
X2094244Y-2445156D01*
X2164956Y-2445156D01*
X2164956Y-2699156D02*
X2164956Y-2628444D01*
X2094244Y-2628444D01*
X2094244Y-2699156D01*
X2164956Y-2699156D01*
X2164956Y-2953156D02*
X2164956Y-2882444D01*
X2094244Y-2882444D01*
X2094244Y-2953156D01*
X2164956Y-2953156D01*
X2164956Y-3207156D02*
X2164956Y-3136444D01*
X2094244Y-3136444D01*
X2094244Y-3207156D01*
X2164956Y-3207156D01*
X2418956Y-2445156D02*
X2418956Y-2374444D01*
X2348244Y-2374444D01*
X2348244Y-2445156D01*
X2418956Y-2445156D01*
X2418956Y-2699156D02*
X2418956Y-2628444D01*
X2348244Y-2628444D01*
X2348244Y-2699156D01*
X2418956Y-2699156D01*
X2418956Y-2953156D02*
X2418956Y-2882444D01*
X2348244Y-2882444D01*
X2348244Y-2953156D01*
X2418956Y-2953156D01*
X2418956Y-3207156D02*
X2418956Y-3136444D01*
X2348244Y-3136444D01*
X2348244Y-3207156D01*
X2418956Y-3207156D01*
X3330600Y-5881800D02*
X3440600Y-5771800D01*
X3330600Y-5661800D01*
X3220600Y-5771800D01*
X3330600Y-5881800D01*
X2130600Y-4181800D02*
X2240600Y-4071800D01*
X2130600Y-3961800D01*
X2020600Y-4071800D01*
X2130600Y-4181800D01*
X3330600Y-2081800D02*
X3440600Y-1971800D01*
X3330600Y-1861800D01*
X3220600Y-1971800D01*
X3330600Y-2081800D01*
X2343600Y-4316800D02*
X2573600Y-4546800D01*
X2573600Y-4316800D02*
X2343600Y-4546800D01*
X2573600Y-4431800D02*
G75*
G03*
X2573600Y-4431800I-115000J0D01*
G01*
X2343600Y-5630800D02*
X2573600Y-5860800D01*
X2573600Y-5630800D02*
X2343600Y-5860800D01*
X2573600Y-5745800D02*
G75*
G03*
X2573600Y-5745800I-115000J0D01*
G01*
D12*
X1869528Y-6623214D02*
X1869528Y-6323214D01*
X1940957Y-6323214D01*
X1983814Y-6337500D01*
X2012385Y-6366071D01*
X2026671Y-6394643D01*
X2040957Y-6451786D01*
X2040957Y-6494643D01*
X2026671Y-6551786D01*
X2012385Y-6580357D01*
X1983814Y-6608929D01*
X1940957Y-6623214D01*
X1869528Y-6623214D01*
X2169528Y-6623214D02*
X2169528Y-6423214D01*
X2169528Y-6480357D02*
X2183814Y-6451786D01*
X2198100Y-6437500D01*
X2226671Y-6423214D01*
X2255243Y-6423214D01*
X2355243Y-6623214D02*
X2355243Y-6423214D01*
X2355243Y-6323214D02*
X2340957Y-6337500D01*
X2355243Y-6351786D01*
X2369528Y-6337500D01*
X2355243Y-6323214D01*
X2355243Y-6351786D01*
X2540957Y-6623214D02*
X2512386Y-6608929D01*
X2498100Y-6580357D01*
X2498100Y-6323214D01*
X2698100Y-6623214D02*
X2669528Y-6608929D01*
X2655243Y-6580357D01*
X2655243Y-6323214D01*
X3040957Y-6623214D02*
X3040957Y-6323214D01*
X3140957Y-6537500D01*
X3240957Y-6323214D01*
X3240957Y-6623214D01*
X3512385Y-6623214D02*
X3512385Y-6466071D01*
X3498100Y-6437500D01*
X3469528Y-6423214D01*
X3412385Y-6423214D01*
X3383814Y-6437500D01*
X3512385Y-6608929D02*
X3483814Y-6623214D01*
X3412385Y-6623214D01*
X3383814Y-6608929D01*
X3369528Y-6580357D01*
X3369528Y-6551786D01*
X3383814Y-6523214D01*
X3412385Y-6508929D01*
X3483814Y-6508929D01*
X3512385Y-6494643D01*
X3655243Y-6423214D02*
X3655243Y-6723214D01*
X3655243Y-6437500D02*
X3683814Y-6423214D01*
X3740957Y-6423214D01*
X3769528Y-6437500D01*
X3783814Y-6451786D01*
X3798100Y-6480357D01*
X3798100Y-6566071D01*
X3783814Y-6594643D01*
X3769528Y-6608929D01*
X3740957Y-6623214D01*
X3683814Y-6623214D01*
X3655243Y-6608929D01*
X3926671Y-6594643D02*
X3940957Y-6608929D01*
X3926671Y-6623214D01*
X3912385Y-6608929D01*
X3926671Y-6594643D01*
X3926671Y-6623214D01*
X3926671Y-6437500D02*
X3940957Y-6451786D01*
X3926671Y-6466071D01*
X3912385Y-6451786D01*
X3926671Y-6437500D01*
X3926671Y-6466071D01*
X1543100Y-7097500D02*
X1583100Y-7137500D01*
X1583100Y-7097500D02*
X1543100Y-7137500D01*
X1926671Y-6953214D02*
X1955243Y-6953214D01*
X1983814Y-6967500D01*
X1998100Y-6981786D01*
X2012385Y-7010357D01*
X2026671Y-7067500D01*
X2026671Y-7138929D01*
X2012385Y-7196071D01*
X1998100Y-7224643D01*
X1983814Y-7238929D01*
X1955243Y-7253214D01*
X1926671Y-7253214D01*
X1898100Y-7238929D01*
X1883814Y-7224643D01*
X1869528Y-7196071D01*
X1855243Y-7138929D01*
X1855243Y-7067500D01*
X1869528Y-7010357D01*
X1883814Y-6981786D01*
X1898100Y-6967500D01*
X1926671Y-6953214D01*
X2155243Y-7224643D02*
X2169528Y-7238929D01*
X2155243Y-7253214D01*
X2140957Y-7238929D01*
X2155243Y-7224643D01*
X2155243Y-7253214D01*
X2426671Y-7053214D02*
X2426671Y-7253214D01*
X2355243Y-6938929D02*
X2283814Y-7153214D01*
X2469528Y-7153214D01*
X2640957Y-6953214D02*
X2669528Y-6953214D01*
X2698100Y-6967500D01*
X2712386Y-6981786D01*
X2726671Y-7010357D01*
X2740957Y-7067500D01*
X2740957Y-7138929D01*
X2726671Y-7196071D01*
X2712386Y-7224643D01*
X2698100Y-7238929D01*
X2669528Y-7253214D01*
X2640957Y-7253214D01*
X2612386Y-7238929D01*
X2598100Y-7224643D01*
X2583814Y-7196071D01*
X2569528Y-7138929D01*
X2569528Y-7067500D01*
X2583814Y-7010357D01*
X2598100Y-6981786D01*
X2612386Y-6967500D01*
X2640957Y-6953214D01*
X2869528Y-7253214D02*
X2869528Y-7053214D01*
X2869528Y-7081786D02*
X2883814Y-7067500D01*
X2912385Y-7053214D01*
X2955243Y-7053214D01*
X2983814Y-7067500D01*
X2998100Y-7096071D01*
X2998100Y-7253214D01*
X2998100Y-7096071D02*
X3012385Y-7067500D01*
X3040957Y-7053214D01*
X3083814Y-7053214D01*
X3112385Y-7067500D01*
X3126671Y-7096071D01*
X3126671Y-7253214D01*
X3269528Y-7253214D02*
X3269528Y-7053214D01*
X3269528Y-7081786D02*
X3283814Y-7067500D01*
X3312385Y-7053214D01*
X3355243Y-7053214D01*
X3383814Y-7067500D01*
X3398100Y-7096071D01*
X3398100Y-7253214D01*
X3398100Y-7096071D02*
X3412385Y-7067500D01*
X3440957Y-7053214D01*
X3483814Y-7053214D01*
X3512385Y-7067500D01*
X3526671Y-7096071D01*
X3526671Y-7253214D01*
X4112385Y-6938929D02*
X3855243Y-7324643D01*
X4498100Y-6953214D02*
X4526671Y-6953214D01*
X4555243Y-6967500D01*
X4569528Y-6981786D01*
X4583814Y-7010357D01*
X4598100Y-7067500D01*
X4598100Y-7138929D01*
X4583814Y-7196071D01*
X4569528Y-7224643D01*
X4555243Y-7238929D01*
X4526671Y-7253214D01*
X4498100Y-7253214D01*
X4469528Y-7238929D01*
X4455243Y-7224643D01*
X4440957Y-7196071D01*
X4426671Y-7138929D01*
X4426671Y-7067500D01*
X4440957Y-7010357D01*
X4455243Y-6981786D01*
X4469528Y-6967500D01*
X4498100Y-6953214D01*
X4726671Y-7224643D02*
X4740957Y-7238929D01*
X4726671Y-7253214D01*
X4712386Y-7238929D01*
X4726671Y-7224643D01*
X4726671Y-7253214D01*
X4926671Y-6953214D02*
X4955243Y-6953214D01*
X4983814Y-6967500D01*
X4998100Y-6981786D01*
X5012386Y-7010357D01*
X5026671Y-7067500D01*
X5026671Y-7138929D01*
X5012386Y-7196071D01*
X4998100Y-7224643D01*
X4983814Y-7238929D01*
X4955243Y-7253214D01*
X4926671Y-7253214D01*
X4898100Y-7238929D01*
X4883814Y-7224643D01*
X4869528Y-7196071D01*
X4855243Y-7138929D01*
X4855243Y-7067500D01*
X4869528Y-7010357D01*
X4883814Y-6981786D01*
X4898100Y-6967500D01*
X4926671Y-6953214D01*
X5312386Y-7253214D02*
X5140957Y-7253214D01*
X5226671Y-7253214D02*
X5226671Y-6953214D01*
X5198100Y-6996071D01*
X5169528Y-7024643D01*
X5140957Y-7038929D01*
X5569528Y-6953214D02*
X5512386Y-6953214D01*
X5483814Y-6967500D01*
X5469528Y-6981786D01*
X5440957Y-7024643D01*
X5426671Y-7081786D01*
X5426671Y-7196071D01*
X5440957Y-7224643D01*
X5455243Y-7238929D01*
X5483814Y-7253214D01*
X5540957Y-7253214D01*
X5569528Y-7238929D01*
X5583814Y-7224643D01*
X5598100Y-7196071D01*
X5598100Y-7124643D01*
X5583814Y-7096071D01*
X5569528Y-7081786D01*
X5540957Y-7067500D01*
X5483814Y-7067500D01*
X5455243Y-7081786D01*
X5440957Y-7096071D01*
X5426671Y-7124643D01*
X5712385Y-6953214D02*
X5712385Y-7010357D01*
X5826671Y-6953214D02*
X5826671Y-7010357D01*
X6269528Y-7367500D02*
X6255243Y-7353214D01*
X6226671Y-7310357D01*
X6212385Y-7281786D01*
X6198100Y-7238929D01*
X6183814Y-7167500D01*
X6183814Y-7110357D01*
X6198100Y-7038929D01*
X6212385Y-6996071D01*
X6226671Y-6967500D01*
X6255243Y-6924643D01*
X6269528Y-6910357D01*
X6512385Y-7053214D02*
X6512385Y-7253214D01*
X6440957Y-6938929D02*
X6369528Y-7153214D01*
X6555243Y-7153214D01*
X6812385Y-6953214D02*
X6669528Y-6953214D01*
X6655243Y-7096071D01*
X6669528Y-7081786D01*
X6698100Y-7067500D01*
X6769528Y-7067500D01*
X6798100Y-7081786D01*
X6812385Y-7096071D01*
X6826671Y-7124643D01*
X6826671Y-7196071D01*
X6812385Y-7224643D01*
X6798100Y-7238929D01*
X6769528Y-7253214D01*
X6698100Y-7253214D01*
X6669528Y-7238929D01*
X6655243Y-7224643D01*
X7183814Y-7253214D02*
X7183814Y-6953214D01*
X7312385Y-7253214D02*
X7312385Y-7096071D01*
X7298100Y-7067500D01*
X7269528Y-7053214D01*
X7226671Y-7053214D01*
X7198100Y-7067500D01*
X7183814Y-7081786D01*
X7498100Y-7253214D02*
X7469528Y-7238929D01*
X7455243Y-7224643D01*
X7440957Y-7196071D01*
X7440957Y-7110357D01*
X7455243Y-7081786D01*
X7469528Y-7067500D01*
X7498100Y-7053214D01*
X7540957Y-7053214D01*
X7569528Y-7067500D01*
X7583814Y-7081786D01*
X7598100Y-7110357D01*
X7598100Y-7196071D01*
X7583814Y-7224643D01*
X7569528Y-7238929D01*
X7540957Y-7253214D01*
X7498100Y-7253214D01*
X7769528Y-7253214D02*
X7740957Y-7238929D01*
X7726671Y-7210357D01*
X7726671Y-6953214D01*
X7998100Y-7238929D02*
X7969528Y-7253214D01*
X7912385Y-7253214D01*
X7883814Y-7238929D01*
X7869528Y-7210357D01*
X7869528Y-7096071D01*
X7883814Y-7067500D01*
X7912385Y-7053214D01*
X7969528Y-7053214D01*
X7998100Y-7067500D01*
X8012385Y-7096071D01*
X8012385Y-7124643D01*
X7869528Y-7153214D01*
X8126671Y-7238929D02*
X8155243Y-7253214D01*
X8212385Y-7253214D01*
X8240957Y-7238929D01*
X8255243Y-7210357D01*
X8255243Y-7196071D01*
X8240957Y-7167500D01*
X8212385Y-7153214D01*
X8169528Y-7153214D01*
X8140957Y-7138929D01*
X8126671Y-7110357D01*
X8126671Y-7096071D01*
X8140957Y-7067500D01*
X8169528Y-7053214D01*
X8212385Y-7053214D01*
X8240957Y-7067500D01*
X8355243Y-7367500D02*
X8369528Y-7353214D01*
X8398100Y-7310357D01*
X8412386Y-7281786D01*
X8426671Y-7238929D01*
X8440957Y-7167500D01*
X8440957Y-7110357D01*
X8426671Y-7038929D01*
X8412386Y-6996071D01*
X8398100Y-6967500D01*
X8369528Y-6924643D01*
X8355243Y-6910357D01*
X1583100Y-7513500D02*
G75*
G03*
X1583100Y-7513500I-38100J0D01*
G01*
X1926671Y-7349214D02*
X1955243Y-7349214D01*
X1983814Y-7363500D01*
X1998100Y-7377786D01*
X2012385Y-7406357D01*
X2026671Y-7463500D01*
X2026671Y-7534929D01*
X2012385Y-7592071D01*
X1998100Y-7620643D01*
X1983814Y-7634929D01*
X1955243Y-7649214D01*
X1926671Y-7649214D01*
X1898100Y-7634929D01*
X1883814Y-7620643D01*
X1869528Y-7592071D01*
X1855243Y-7534929D01*
X1855243Y-7463500D01*
X1869528Y-7406357D01*
X1883814Y-7377786D01*
X1898100Y-7363500D01*
X1926671Y-7349214D01*
X2155243Y-7620643D02*
X2169528Y-7634929D01*
X2155243Y-7649214D01*
X2140957Y-7634929D01*
X2155243Y-7620643D01*
X2155243Y-7649214D01*
X2269528Y-7349214D02*
X2469528Y-7349214D01*
X2340957Y-7649214D01*
X2712386Y-7349214D02*
X2655243Y-7349214D01*
X2626671Y-7363500D01*
X2612386Y-7377786D01*
X2583814Y-7420643D01*
X2569528Y-7477786D01*
X2569528Y-7592071D01*
X2583814Y-7620643D01*
X2598100Y-7634929D01*
X2626671Y-7649214D01*
X2683814Y-7649214D01*
X2712386Y-7634929D01*
X2726671Y-7620643D01*
X2740957Y-7592071D01*
X2740957Y-7520643D01*
X2726671Y-7492071D01*
X2712386Y-7477786D01*
X2683814Y-7463500D01*
X2626671Y-7463500D01*
X2598100Y-7477786D01*
X2583814Y-7492071D01*
X2569528Y-7520643D01*
X2869528Y-7649214D02*
X2869528Y-7449214D01*
X2869528Y-7477786D02*
X2883814Y-7463500D01*
X2912385Y-7449214D01*
X2955243Y-7449214D01*
X2983814Y-7463500D01*
X2998100Y-7492071D01*
X2998100Y-7649214D01*
X2998100Y-7492071D02*
X3012385Y-7463500D01*
X3040957Y-7449214D01*
X3083814Y-7449214D01*
X3112385Y-7463500D01*
X3126671Y-7492071D01*
X3126671Y-7649214D01*
X3269528Y-7649214D02*
X3269528Y-7449214D01*
X3269528Y-7477786D02*
X3283814Y-7463500D01*
X3312385Y-7449214D01*
X3355243Y-7449214D01*
X3383814Y-7463500D01*
X3398100Y-7492071D01*
X3398100Y-7649214D01*
X3398100Y-7492071D02*
X3412385Y-7463500D01*
X3440957Y-7449214D01*
X3483814Y-7449214D01*
X3512385Y-7463500D01*
X3526671Y-7492071D01*
X3526671Y-7649214D01*
X4112385Y-7334929D02*
X3855243Y-7720643D01*
X4498100Y-7349214D02*
X4526671Y-7349214D01*
X4555243Y-7363500D01*
X4569528Y-7377786D01*
X4583814Y-7406357D01*
X4598100Y-7463500D01*
X4598100Y-7534929D01*
X4583814Y-7592071D01*
X4569528Y-7620643D01*
X4555243Y-7634929D01*
X4526671Y-7649214D01*
X4498100Y-7649214D01*
X4469528Y-7634929D01*
X4455243Y-7620643D01*
X4440957Y-7592071D01*
X4426671Y-7534929D01*
X4426671Y-7463500D01*
X4440957Y-7406357D01*
X4455243Y-7377786D01*
X4469528Y-7363500D01*
X4498100Y-7349214D01*
X4726671Y-7620643D02*
X4740957Y-7634929D01*
X4726671Y-7649214D01*
X4712386Y-7634929D01*
X4726671Y-7620643D01*
X4726671Y-7649214D01*
X4926671Y-7349214D02*
X4955243Y-7349214D01*
X4983814Y-7363500D01*
X4998100Y-7377786D01*
X5012386Y-7406357D01*
X5026671Y-7463500D01*
X5026671Y-7534929D01*
X5012386Y-7592071D01*
X4998100Y-7620643D01*
X4983814Y-7634929D01*
X4955243Y-7649214D01*
X4926671Y-7649214D01*
X4898100Y-7634929D01*
X4883814Y-7620643D01*
X4869528Y-7592071D01*
X4855243Y-7534929D01*
X4855243Y-7463500D01*
X4869528Y-7406357D01*
X4883814Y-7377786D01*
X4898100Y-7363500D01*
X4926671Y-7349214D01*
X5126671Y-7349214D02*
X5312386Y-7349214D01*
X5212386Y-7463500D01*
X5255243Y-7463500D01*
X5283814Y-7477786D01*
X5298100Y-7492071D01*
X5312386Y-7520643D01*
X5312386Y-7592071D01*
X5298100Y-7620643D01*
X5283814Y-7634929D01*
X5255243Y-7649214D01*
X5169528Y-7649214D01*
X5140957Y-7634929D01*
X5126671Y-7620643D01*
X5498100Y-7349214D02*
X5526671Y-7349214D01*
X5555243Y-7363500D01*
X5569528Y-7377786D01*
X5583814Y-7406357D01*
X5598100Y-7463500D01*
X5598100Y-7534929D01*
X5583814Y-7592071D01*
X5569528Y-7620643D01*
X5555243Y-7634929D01*
X5526671Y-7649214D01*
X5498100Y-7649214D01*
X5469528Y-7634929D01*
X5455243Y-7620643D01*
X5440957Y-7592071D01*
X5426671Y-7534929D01*
X5426671Y-7463500D01*
X5440957Y-7406357D01*
X5455243Y-7377786D01*
X5469528Y-7363500D01*
X5498100Y-7349214D01*
X5712385Y-7349214D02*
X5712385Y-7406357D01*
X5826671Y-7349214D02*
X5826671Y-7406357D01*
X6269528Y-7763500D02*
X6255243Y-7749214D01*
X6226671Y-7706357D01*
X6212385Y-7677786D01*
X6198100Y-7634929D01*
X6183814Y-7563500D01*
X6183814Y-7506357D01*
X6198100Y-7434929D01*
X6212385Y-7392071D01*
X6226671Y-7363500D01*
X6255243Y-7320643D01*
X6269528Y-7306357D01*
X6526671Y-7349214D02*
X6383814Y-7349214D01*
X6369528Y-7492071D01*
X6383814Y-7477786D01*
X6412385Y-7463500D01*
X6483814Y-7463500D01*
X6512385Y-7477786D01*
X6526671Y-7492071D01*
X6540957Y-7520643D01*
X6540957Y-7592071D01*
X6526671Y-7620643D01*
X6512385Y-7634929D01*
X6483814Y-7649214D01*
X6412385Y-7649214D01*
X6383814Y-7634929D01*
X6369528Y-7620643D01*
X6898100Y-7649214D02*
X6898100Y-7349214D01*
X7026671Y-7649214D02*
X7026671Y-7492071D01*
X7012385Y-7463500D01*
X6983814Y-7449214D01*
X6940957Y-7449214D01*
X6912385Y-7463500D01*
X6898100Y-7477786D01*
X7212385Y-7649214D02*
X7183814Y-7634929D01*
X7169528Y-7620643D01*
X7155243Y-7592071D01*
X7155243Y-7506357D01*
X7169528Y-7477786D01*
X7183814Y-7463500D01*
X7212385Y-7449214D01*
X7255243Y-7449214D01*
X7283814Y-7463500D01*
X7298100Y-7477786D01*
X7312385Y-7506357D01*
X7312385Y-7592071D01*
X7298100Y-7620643D01*
X7283814Y-7634929D01*
X7255243Y-7649214D01*
X7212385Y-7649214D01*
X7483814Y-7649214D02*
X7455243Y-7634929D01*
X7440957Y-7606357D01*
X7440957Y-7349214D01*
X7712385Y-7634929D02*
X7683814Y-7649214D01*
X7626671Y-7649214D01*
X7598100Y-7634929D01*
X7583814Y-7606357D01*
X7583814Y-7492071D01*
X7598100Y-7463500D01*
X7626671Y-7449214D01*
X7683814Y-7449214D01*
X7712385Y-7463500D01*
X7726671Y-7492071D01*
X7726671Y-7520643D01*
X7583814Y-7549214D01*
X7840957Y-7634929D02*
X7869528Y-7649214D01*
X7926671Y-7649214D01*
X7955243Y-7634929D01*
X7969528Y-7606357D01*
X7969528Y-7592071D01*
X7955243Y-7563500D01*
X7926671Y-7549214D01*
X7883814Y-7549214D01*
X7855243Y-7534929D01*
X7840957Y-7506357D01*
X7840957Y-7492071D01*
X7855243Y-7463500D01*
X7883814Y-7449214D01*
X7926671Y-7449214D01*
X7955243Y-7463500D01*
X8069528Y-7763500D02*
X8083814Y-7749214D01*
X8112385Y-7706357D01*
X8126671Y-7677786D01*
X8140957Y-7634929D01*
X8155243Y-7563500D01*
X8155243Y-7506357D01*
X8140957Y-7434929D01*
X8126671Y-7392071D01*
X8112385Y-7363500D01*
X8083814Y-7320643D01*
X8069528Y-7306357D01*
X1537100Y-7863500D02*
X1537100Y-7955500D01*
X1491100Y-7909500D02*
X1583100Y-7909500D01*
X1926671Y-7745214D02*
X1955243Y-7745214D01*
X1983814Y-7759500D01*
X1998100Y-7773786D01*
X2012385Y-7802357D01*
X2026671Y-7859500D01*
X2026671Y-7930929D01*
X2012385Y-7988071D01*
X1998100Y-8016643D01*
X1983814Y-8030929D01*
X1955243Y-8045214D01*
X1926671Y-8045214D01*
X1898100Y-8030929D01*
X1883814Y-8016643D01*
X1869528Y-7988071D01*
X1855243Y-7930929D01*
X1855243Y-7859500D01*
X1869528Y-7802357D01*
X1883814Y-7773786D01*
X1898100Y-7759500D01*
X1926671Y-7745214D01*
X2155243Y-8016643D02*
X2169528Y-8030929D01*
X2155243Y-8045214D01*
X2140957Y-8030929D01*
X2155243Y-8016643D01*
X2155243Y-8045214D01*
X2312386Y-8045214D02*
X2369528Y-8045214D01*
X2398100Y-8030929D01*
X2412386Y-8016643D01*
X2440957Y-7973786D01*
X2455243Y-7916643D01*
X2455243Y-7802357D01*
X2440957Y-7773786D01*
X2426671Y-7759500D01*
X2398100Y-7745214D01*
X2340957Y-7745214D01*
X2312386Y-7759500D01*
X2298100Y-7773786D01*
X2283814Y-7802357D01*
X2283814Y-7873786D01*
X2298100Y-7902357D01*
X2312386Y-7916643D01*
X2340957Y-7930929D01*
X2398100Y-7930929D01*
X2426671Y-7916643D01*
X2440957Y-7902357D01*
X2455243Y-7873786D01*
X2569528Y-7773786D02*
X2583814Y-7759500D01*
X2612386Y-7745214D01*
X2683814Y-7745214D01*
X2712386Y-7759500D01*
X2726671Y-7773786D01*
X2740957Y-7802357D01*
X2740957Y-7830929D01*
X2726671Y-7873786D01*
X2555243Y-8045214D01*
X2740957Y-8045214D01*
X2869528Y-8045214D02*
X2869528Y-7845214D01*
X2869528Y-7873786D02*
X2883814Y-7859500D01*
X2912385Y-7845214D01*
X2955243Y-7845214D01*
X2983814Y-7859500D01*
X2998100Y-7888071D01*
X2998100Y-8045214D01*
X2998100Y-7888071D02*
X3012385Y-7859500D01*
X3040957Y-7845214D01*
X3083814Y-7845214D01*
X3112385Y-7859500D01*
X3126671Y-7888071D01*
X3126671Y-8045214D01*
X3269528Y-8045214D02*
X3269528Y-7845214D01*
X3269528Y-7873786D02*
X3283814Y-7859500D01*
X3312385Y-7845214D01*
X3355243Y-7845214D01*
X3383814Y-7859500D01*
X3398100Y-7888071D01*
X3398100Y-8045214D01*
X3398100Y-7888071D02*
X3412385Y-7859500D01*
X3440957Y-7845214D01*
X3483814Y-7845214D01*
X3512385Y-7859500D01*
X3526671Y-7888071D01*
X3526671Y-8045214D01*
X4112385Y-7730929D02*
X3855243Y-8116643D01*
X4498100Y-7745214D02*
X4526671Y-7745214D01*
X4555243Y-7759500D01*
X4569528Y-7773786D01*
X4583814Y-7802357D01*
X4598100Y-7859500D01*
X4598100Y-7930929D01*
X4583814Y-7988071D01*
X4569528Y-8016643D01*
X4555243Y-8030929D01*
X4526671Y-8045214D01*
X4498100Y-8045214D01*
X4469528Y-8030929D01*
X4455243Y-8016643D01*
X4440957Y-7988071D01*
X4426671Y-7930929D01*
X4426671Y-7859500D01*
X4440957Y-7802357D01*
X4455243Y-7773786D01*
X4469528Y-7759500D01*
X4498100Y-7745214D01*
X4726671Y-8016643D02*
X4740957Y-8030929D01*
X4726671Y-8045214D01*
X4712386Y-8030929D01*
X4726671Y-8016643D01*
X4726671Y-8045214D01*
X4926671Y-7745214D02*
X4955243Y-7745214D01*
X4983814Y-7759500D01*
X4998100Y-7773786D01*
X5012386Y-7802357D01*
X5026671Y-7859500D01*
X5026671Y-7930929D01*
X5012386Y-7988071D01*
X4998100Y-8016643D01*
X4983814Y-8030929D01*
X4955243Y-8045214D01*
X4926671Y-8045214D01*
X4898100Y-8030929D01*
X4883814Y-8016643D01*
X4869528Y-7988071D01*
X4855243Y-7930929D01*
X4855243Y-7859500D01*
X4869528Y-7802357D01*
X4883814Y-7773786D01*
X4898100Y-7759500D01*
X4926671Y-7745214D01*
X5126671Y-7745214D02*
X5312386Y-7745214D01*
X5212386Y-7859500D01*
X5255243Y-7859500D01*
X5283814Y-7873786D01*
X5298100Y-7888071D01*
X5312386Y-7916643D01*
X5312386Y-7988071D01*
X5298100Y-8016643D01*
X5283814Y-8030929D01*
X5255243Y-8045214D01*
X5169528Y-8045214D01*
X5140957Y-8030929D01*
X5126671Y-8016643D01*
X5569528Y-7745214D02*
X5512386Y-7745214D01*
X5483814Y-7759500D01*
X5469528Y-7773786D01*
X5440957Y-7816643D01*
X5426671Y-7873786D01*
X5426671Y-7988071D01*
X5440957Y-8016643D01*
X5455243Y-8030929D01*
X5483814Y-8045214D01*
X5540957Y-8045214D01*
X5569528Y-8030929D01*
X5583814Y-8016643D01*
X5598100Y-7988071D01*
X5598100Y-7916643D01*
X5583814Y-7888071D01*
X5569528Y-7873786D01*
X5540957Y-7859500D01*
X5483814Y-7859500D01*
X5455243Y-7873786D01*
X5440957Y-7888071D01*
X5426671Y-7916643D01*
X5712385Y-7745214D02*
X5712385Y-7802357D01*
X5826671Y-7745214D02*
X5826671Y-7802357D01*
X6269528Y-8159500D02*
X6255243Y-8145214D01*
X6226671Y-8102357D01*
X6212385Y-8073786D01*
X6198100Y-8030929D01*
X6183814Y-7959500D01*
X6183814Y-7902357D01*
X6198100Y-7830929D01*
X6212385Y-7788071D01*
X6226671Y-7759500D01*
X6255243Y-7716643D01*
X6269528Y-7702357D01*
X6512385Y-7845214D02*
X6512385Y-8045214D01*
X6440957Y-7730929D02*
X6369528Y-7945214D01*
X6555243Y-7945214D01*
X6898100Y-8045214D02*
X6898100Y-7745214D01*
X7026671Y-8045214D02*
X7026671Y-7888071D01*
X7012385Y-7859500D01*
X6983814Y-7845214D01*
X6940957Y-7845214D01*
X6912385Y-7859500D01*
X6898100Y-7873786D01*
X7212385Y-8045214D02*
X7183814Y-8030929D01*
X7169528Y-8016643D01*
X7155243Y-7988071D01*
X7155243Y-7902357D01*
X7169528Y-7873786D01*
X7183814Y-7859500D01*
X7212385Y-7845214D01*
X7255243Y-7845214D01*
X7283814Y-7859500D01*
X7298100Y-7873786D01*
X7312385Y-7902357D01*
X7312385Y-7988071D01*
X7298100Y-8016643D01*
X7283814Y-8030929D01*
X7255243Y-8045214D01*
X7212385Y-8045214D01*
X7483814Y-8045214D02*
X7455243Y-8030929D01*
X7440957Y-8002357D01*
X7440957Y-7745214D01*
X7712385Y-8030929D02*
X7683814Y-8045214D01*
X7626671Y-8045214D01*
X7598100Y-8030929D01*
X7583814Y-8002357D01*
X7583814Y-7888071D01*
X7598100Y-7859500D01*
X7626671Y-7845214D01*
X7683814Y-7845214D01*
X7712385Y-7859500D01*
X7726671Y-7888071D01*
X7726671Y-7916643D01*
X7583814Y-7945214D01*
X7840957Y-8030929D02*
X7869528Y-8045214D01*
X7926671Y-8045214D01*
X7955243Y-8030929D01*
X7969528Y-8002357D01*
X7969528Y-7988071D01*
X7955243Y-7959500D01*
X7926671Y-7945214D01*
X7883814Y-7945214D01*
X7855243Y-7930929D01*
X7840957Y-7902357D01*
X7840957Y-7888071D01*
X7855243Y-7859500D01*
X7883814Y-7845214D01*
X7926671Y-7845214D01*
X7955243Y-7859500D01*
X8069528Y-8159500D02*
X8083814Y-8145214D01*
X8112385Y-8102357D01*
X8126671Y-8073786D01*
X8140957Y-8030929D01*
X8155243Y-7959500D01*
X8155243Y-7902357D01*
X8140957Y-7830929D01*
X8126671Y-7788071D01*
X8112385Y-7759500D01*
X8083814Y-7716643D01*
X8069528Y-7702357D01*
X1568455Y-8340856D02*
X1568455Y-8270144D01*
X1497744Y-8270144D01*
X1497744Y-8340856D01*
X1568455Y-8340856D01*
X2026671Y-8441214D02*
X1855243Y-8441214D01*
X1940957Y-8441214D02*
X1940957Y-8141214D01*
X1912385Y-8184071D01*
X1883814Y-8212643D01*
X1855243Y-8226929D01*
X2155243Y-8412643D02*
X2169528Y-8426929D01*
X2155243Y-8441214D01*
X2140957Y-8426929D01*
X2155243Y-8412643D01*
X2155243Y-8441214D01*
X2355243Y-8141214D02*
X2383814Y-8141214D01*
X2412386Y-8155500D01*
X2426671Y-8169786D01*
X2440957Y-8198357D01*
X2455243Y-8255500D01*
X2455243Y-8326929D01*
X2440957Y-8384071D01*
X2426671Y-8412643D01*
X2412386Y-8426929D01*
X2383814Y-8441214D01*
X2355243Y-8441214D01*
X2326671Y-8426929D01*
X2312386Y-8412643D01*
X2298100Y-8384071D01*
X2283814Y-8326929D01*
X2283814Y-8255500D01*
X2298100Y-8198357D01*
X2312386Y-8169786D01*
X2326671Y-8155500D01*
X2355243Y-8141214D01*
X2640957Y-8141214D02*
X2669528Y-8141214D01*
X2698100Y-8155500D01*
X2712386Y-8169786D01*
X2726671Y-8198357D01*
X2740957Y-8255500D01*
X2740957Y-8326929D01*
X2726671Y-8384071D01*
X2712386Y-8412643D01*
X2698100Y-8426929D01*
X2669528Y-8441214D01*
X2640957Y-8441214D01*
X2612386Y-8426929D01*
X2598100Y-8412643D01*
X2583814Y-8384071D01*
X2569528Y-8326929D01*
X2569528Y-8255500D01*
X2583814Y-8198357D01*
X2598100Y-8169786D01*
X2612386Y-8155500D01*
X2640957Y-8141214D01*
X2869528Y-8441214D02*
X2869528Y-8241214D01*
X2869528Y-8269786D02*
X2883814Y-8255500D01*
X2912385Y-8241214D01*
X2955243Y-8241214D01*
X2983814Y-8255500D01*
X2998100Y-8284071D01*
X2998100Y-8441214D01*
X2998100Y-8284071D02*
X3012385Y-8255500D01*
X3040957Y-8241214D01*
X3083814Y-8241214D01*
X3112385Y-8255500D01*
X3126671Y-8284071D01*
X3126671Y-8441214D01*
X3269528Y-8441214D02*
X3269528Y-8241214D01*
X3269528Y-8269786D02*
X3283814Y-8255500D01*
X3312385Y-8241214D01*
X3355243Y-8241214D01*
X3383814Y-8255500D01*
X3398100Y-8284071D01*
X3398100Y-8441214D01*
X3398100Y-8284071D02*
X3412385Y-8255500D01*
X3440957Y-8241214D01*
X3483814Y-8241214D01*
X3512385Y-8255500D01*
X3526671Y-8284071D01*
X3526671Y-8441214D01*
X4112385Y-8126929D02*
X3855243Y-8512643D01*
X4498100Y-8141214D02*
X4526671Y-8141214D01*
X4555243Y-8155500D01*
X4569528Y-8169786D01*
X4583814Y-8198357D01*
X4598100Y-8255500D01*
X4598100Y-8326929D01*
X4583814Y-8384071D01*
X4569528Y-8412643D01*
X4555243Y-8426929D01*
X4526671Y-8441214D01*
X4498100Y-8441214D01*
X4469528Y-8426929D01*
X4455243Y-8412643D01*
X4440957Y-8384071D01*
X4426671Y-8326929D01*
X4426671Y-8255500D01*
X4440957Y-8198357D01*
X4455243Y-8169786D01*
X4469528Y-8155500D01*
X4498100Y-8141214D01*
X4726671Y-8412643D02*
X4740957Y-8426929D01*
X4726671Y-8441214D01*
X4712386Y-8426929D01*
X4726671Y-8412643D01*
X4726671Y-8441214D01*
X4926671Y-8141214D02*
X4955243Y-8141214D01*
X4983814Y-8155500D01*
X4998100Y-8169786D01*
X5012386Y-8198357D01*
X5026671Y-8255500D01*
X5026671Y-8326929D01*
X5012386Y-8384071D01*
X4998100Y-8412643D01*
X4983814Y-8426929D01*
X4955243Y-8441214D01*
X4926671Y-8441214D01*
X4898100Y-8426929D01*
X4883814Y-8412643D01*
X4869528Y-8384071D01*
X4855243Y-8326929D01*
X4855243Y-8255500D01*
X4869528Y-8198357D01*
X4883814Y-8169786D01*
X4898100Y-8155500D01*
X4926671Y-8141214D01*
X5126671Y-8141214D02*
X5312386Y-8141214D01*
X5212386Y-8255500D01*
X5255243Y-8255500D01*
X5283814Y-8269786D01*
X5298100Y-8284071D01*
X5312386Y-8312643D01*
X5312386Y-8384071D01*
X5298100Y-8412643D01*
X5283814Y-8426929D01*
X5255243Y-8441214D01*
X5169528Y-8441214D01*
X5140957Y-8426929D01*
X5126671Y-8412643D01*
X5455243Y-8441214D02*
X5512386Y-8441214D01*
X5540957Y-8426929D01*
X5555243Y-8412643D01*
X5583814Y-8369786D01*
X5598100Y-8312643D01*
X5598100Y-8198357D01*
X5583814Y-8169786D01*
X5569528Y-8155500D01*
X5540957Y-8141214D01*
X5483814Y-8141214D01*
X5455243Y-8155500D01*
X5440957Y-8169786D01*
X5426671Y-8198357D01*
X5426671Y-8269786D01*
X5440957Y-8298357D01*
X5455243Y-8312643D01*
X5483814Y-8326929D01*
X5540957Y-8326929D01*
X5569528Y-8312643D01*
X5583814Y-8298357D01*
X5598100Y-8269786D01*
X5712385Y-8141214D02*
X5712385Y-8198357D01*
X5826671Y-8141214D02*
X5826671Y-8198357D01*
X6269528Y-8555500D02*
X6255243Y-8541214D01*
X6226671Y-8498357D01*
X6212385Y-8469786D01*
X6198100Y-8426929D01*
X6183814Y-8355500D01*
X6183814Y-8298357D01*
X6198100Y-8226929D01*
X6212385Y-8184071D01*
X6226671Y-8155500D01*
X6255243Y-8112643D01*
X6269528Y-8098357D01*
X6426671Y-8269786D02*
X6398100Y-8255500D01*
X6383814Y-8241214D01*
X6369528Y-8212643D01*
X6369528Y-8198357D01*
X6383814Y-8169786D01*
X6398100Y-8155500D01*
X6426671Y-8141214D01*
X6483814Y-8141214D01*
X6512385Y-8155500D01*
X6526671Y-8169786D01*
X6540957Y-8198357D01*
X6540957Y-8212643D01*
X6526671Y-8241214D01*
X6512385Y-8255500D01*
X6483814Y-8269786D01*
X6426671Y-8269786D01*
X6398100Y-8284071D01*
X6383814Y-8298357D01*
X6369528Y-8326929D01*
X6369528Y-8384071D01*
X6383814Y-8412643D01*
X6398100Y-8426929D01*
X6426671Y-8441214D01*
X6483814Y-8441214D01*
X6512385Y-8426929D01*
X6526671Y-8412643D01*
X6540957Y-8384071D01*
X6540957Y-8326929D01*
X6526671Y-8298357D01*
X6512385Y-8284071D01*
X6483814Y-8269786D01*
X6898100Y-8441214D02*
X6898100Y-8141214D01*
X7026671Y-8441214D02*
X7026671Y-8284071D01*
X7012385Y-8255500D01*
X6983814Y-8241214D01*
X6940957Y-8241214D01*
X6912385Y-8255500D01*
X6898100Y-8269786D01*
X7212385Y-8441214D02*
X7183814Y-8426929D01*
X7169528Y-8412643D01*
X7155243Y-8384071D01*
X7155243Y-8298357D01*
X7169528Y-8269786D01*
X7183814Y-8255500D01*
X7212385Y-8241214D01*
X7255243Y-8241214D01*
X7283814Y-8255500D01*
X7298100Y-8269786D01*
X7312385Y-8298357D01*
X7312385Y-8384071D01*
X7298100Y-8412643D01*
X7283814Y-8426929D01*
X7255243Y-8441214D01*
X7212385Y-8441214D01*
X7483814Y-8441214D02*
X7455243Y-8426929D01*
X7440957Y-8398357D01*
X7440957Y-8141214D01*
X7712385Y-8426929D02*
X7683814Y-8441214D01*
X7626671Y-8441214D01*
X7598100Y-8426929D01*
X7583814Y-8398357D01*
X7583814Y-8284071D01*
X7598100Y-8255500D01*
X7626671Y-8241214D01*
X7683814Y-8241214D01*
X7712385Y-8255500D01*
X7726671Y-8284071D01*
X7726671Y-8312643D01*
X7583814Y-8341214D01*
X7840957Y-8426929D02*
X7869528Y-8441214D01*
X7926671Y-8441214D01*
X7955243Y-8426929D01*
X7969528Y-8398357D01*
X7969528Y-8384071D01*
X7955243Y-8355500D01*
X7926671Y-8341214D01*
X7883814Y-8341214D01*
X7855243Y-8326929D01*
X7840957Y-8298357D01*
X7840957Y-8284071D01*
X7855243Y-8255500D01*
X7883814Y-8241214D01*
X7926671Y-8241214D01*
X7955243Y-8255500D01*
X8069528Y-8555500D02*
X8083814Y-8541214D01*
X8112385Y-8498357D01*
X8126671Y-8469786D01*
X8140957Y-8426929D01*
X8155243Y-8355500D01*
X8155243Y-8298357D01*
X8140957Y-8226929D01*
X8126671Y-8184071D01*
X8112385Y-8155500D01*
X8083814Y-8112643D01*
X8069528Y-8098357D01*
X1473100Y-8811500D02*
X1583100Y-8701500D01*
X1473100Y-8591500D01*
X1363100Y-8701500D01*
X1473100Y-8811500D01*
X1855243Y-8565786D02*
X1869528Y-8551500D01*
X1898100Y-8537214D01*
X1969528Y-8537214D01*
X1998100Y-8551500D01*
X2012385Y-8565786D01*
X2026671Y-8594357D01*
X2026671Y-8622929D01*
X2012385Y-8665786D01*
X1840957Y-8837214D01*
X2026671Y-8837214D01*
X2155243Y-8808643D02*
X2169528Y-8822929D01*
X2155243Y-8837214D01*
X2140957Y-8822929D01*
X2155243Y-8808643D01*
X2155243Y-8837214D01*
X2283814Y-8565786D02*
X2298100Y-8551500D01*
X2326671Y-8537214D01*
X2398100Y-8537214D01*
X2426671Y-8551500D01*
X2440957Y-8565786D01*
X2455243Y-8594357D01*
X2455243Y-8622929D01*
X2440957Y-8665786D01*
X2269528Y-8837214D01*
X2455243Y-8837214D01*
X2640957Y-8537214D02*
X2669528Y-8537214D01*
X2698100Y-8551500D01*
X2712386Y-8565786D01*
X2726671Y-8594357D01*
X2740957Y-8651500D01*
X2740957Y-8722929D01*
X2726671Y-8780072D01*
X2712386Y-8808643D01*
X2698100Y-8822929D01*
X2669528Y-8837214D01*
X2640957Y-8837214D01*
X2612386Y-8822929D01*
X2598100Y-8808643D01*
X2583814Y-8780072D01*
X2569528Y-8722929D01*
X2569528Y-8651500D01*
X2583814Y-8594357D01*
X2598100Y-8565786D01*
X2612386Y-8551500D01*
X2640957Y-8537214D01*
X2869528Y-8837214D02*
X2869528Y-8637214D01*
X2869528Y-8665786D02*
X2883814Y-8651500D01*
X2912385Y-8637214D01*
X2955243Y-8637214D01*
X2983814Y-8651500D01*
X2998100Y-8680072D01*
X2998100Y-8837214D01*
X2998100Y-8680072D02*
X3012385Y-8651500D01*
X3040957Y-8637214D01*
X3083814Y-8637214D01*
X3112385Y-8651500D01*
X3126671Y-8680072D01*
X3126671Y-8837214D01*
X3269528Y-8837214D02*
X3269528Y-8637214D01*
X3269528Y-8665786D02*
X3283814Y-8651500D01*
X3312385Y-8637214D01*
X3355243Y-8637214D01*
X3383814Y-8651500D01*
X3398100Y-8680072D01*
X3398100Y-8837214D01*
X3398100Y-8680072D02*
X3412385Y-8651500D01*
X3440957Y-8637214D01*
X3483814Y-8637214D01*
X3512385Y-8651500D01*
X3526671Y-8680072D01*
X3526671Y-8837214D01*
X4112385Y-8522929D02*
X3855243Y-8908643D01*
X4498100Y-8537214D02*
X4526671Y-8537214D01*
X4555243Y-8551500D01*
X4569528Y-8565786D01*
X4583814Y-8594357D01*
X4598100Y-8651500D01*
X4598100Y-8722929D01*
X4583814Y-8780072D01*
X4569528Y-8808643D01*
X4555243Y-8822929D01*
X4526671Y-8837214D01*
X4498100Y-8837214D01*
X4469528Y-8822929D01*
X4455243Y-8808643D01*
X4440957Y-8780072D01*
X4426671Y-8722929D01*
X4426671Y-8651500D01*
X4440957Y-8594357D01*
X4455243Y-8565786D01*
X4469528Y-8551500D01*
X4498100Y-8537214D01*
X4726671Y-8808643D02*
X4740957Y-8822929D01*
X4726671Y-8837214D01*
X4712386Y-8822929D01*
X4726671Y-8808643D01*
X4726671Y-8837214D01*
X4926671Y-8537214D02*
X4955243Y-8537214D01*
X4983814Y-8551500D01*
X4998100Y-8565786D01*
X5012386Y-8594357D01*
X5026671Y-8651500D01*
X5026671Y-8722929D01*
X5012386Y-8780072D01*
X4998100Y-8808643D01*
X4983814Y-8822929D01*
X4955243Y-8837214D01*
X4926671Y-8837214D01*
X4898100Y-8822929D01*
X4883814Y-8808643D01*
X4869528Y-8780072D01*
X4855243Y-8722929D01*
X4855243Y-8651500D01*
X4869528Y-8594357D01*
X4883814Y-8565786D01*
X4898100Y-8551500D01*
X4926671Y-8537214D01*
X5198100Y-8665786D02*
X5169528Y-8651500D01*
X5155243Y-8637214D01*
X5140957Y-8608643D01*
X5140957Y-8594357D01*
X5155243Y-8565786D01*
X5169528Y-8551500D01*
X5198100Y-8537214D01*
X5255243Y-8537214D01*
X5283814Y-8551500D01*
X5298100Y-8565786D01*
X5312386Y-8594357D01*
X5312386Y-8608643D01*
X5298100Y-8637214D01*
X5283814Y-8651500D01*
X5255243Y-8665786D01*
X5198100Y-8665786D01*
X5169528Y-8680072D01*
X5155243Y-8694357D01*
X5140957Y-8722929D01*
X5140957Y-8780072D01*
X5155243Y-8808643D01*
X5169528Y-8822929D01*
X5198100Y-8837214D01*
X5255243Y-8837214D01*
X5283814Y-8822929D01*
X5298100Y-8808643D01*
X5312386Y-8780072D01*
X5312386Y-8722929D01*
X5298100Y-8694357D01*
X5283814Y-8680072D01*
X5255243Y-8665786D01*
X5412386Y-8537214D02*
X5612385Y-8537214D01*
X5483814Y-8837214D01*
X5712385Y-8537214D02*
X5712385Y-8594357D01*
X5826671Y-8537214D02*
X5826671Y-8594357D01*
X6269528Y-8951500D02*
X6255243Y-8937214D01*
X6226671Y-8894357D01*
X6212385Y-8865786D01*
X6198100Y-8822929D01*
X6183814Y-8751500D01*
X6183814Y-8694357D01*
X6198100Y-8622929D01*
X6212385Y-8580072D01*
X6226671Y-8551500D01*
X6255243Y-8508643D01*
X6269528Y-8494357D01*
X6355243Y-8537214D02*
X6540957Y-8537214D01*
X6440957Y-8651500D01*
X6483814Y-8651500D01*
X6512385Y-8665786D01*
X6526671Y-8680072D01*
X6540957Y-8708643D01*
X6540957Y-8780072D01*
X6526671Y-8808643D01*
X6512385Y-8822929D01*
X6483814Y-8837214D01*
X6398100Y-8837214D01*
X6369528Y-8822929D01*
X6355243Y-8808643D01*
X6898100Y-8837214D02*
X6898100Y-8537214D01*
X7026671Y-8837214D02*
X7026671Y-8680072D01*
X7012385Y-8651500D01*
X6983814Y-8637214D01*
X6940957Y-8637214D01*
X6912385Y-8651500D01*
X6898100Y-8665786D01*
X7212385Y-8837214D02*
X7183814Y-8822929D01*
X7169528Y-8808643D01*
X7155243Y-8780072D01*
X7155243Y-8694357D01*
X7169528Y-8665786D01*
X7183814Y-8651500D01*
X7212385Y-8637214D01*
X7255243Y-8637214D01*
X7283814Y-8651500D01*
X7298100Y-8665786D01*
X7312385Y-8694357D01*
X7312385Y-8780072D01*
X7298100Y-8808643D01*
X7283814Y-8822929D01*
X7255243Y-8837214D01*
X7212385Y-8837214D01*
X7483814Y-8837214D02*
X7455243Y-8822929D01*
X7440957Y-8794357D01*
X7440957Y-8537214D01*
X7712385Y-8822929D02*
X7683814Y-8837214D01*
X7626671Y-8837214D01*
X7598100Y-8822929D01*
X7583814Y-8794357D01*
X7583814Y-8680072D01*
X7598100Y-8651500D01*
X7626671Y-8637214D01*
X7683814Y-8637214D01*
X7712385Y-8651500D01*
X7726671Y-8680072D01*
X7726671Y-8708643D01*
X7583814Y-8737214D01*
X7840957Y-8822929D02*
X7869528Y-8837214D01*
X7926671Y-8837214D01*
X7955243Y-8822929D01*
X7969528Y-8794357D01*
X7969528Y-8780072D01*
X7955243Y-8751500D01*
X7926671Y-8737214D01*
X7883814Y-8737214D01*
X7855243Y-8722929D01*
X7840957Y-8694357D01*
X7840957Y-8680072D01*
X7855243Y-8651500D01*
X7883814Y-8637214D01*
X7926671Y-8637214D01*
X7955243Y-8651500D01*
X8069528Y-8951500D02*
X8083814Y-8937214D01*
X8112385Y-8894357D01*
X8126671Y-8865786D01*
X8140957Y-8822929D01*
X8155243Y-8751500D01*
X8155243Y-8694357D01*
X8140957Y-8622929D01*
X8126671Y-8580072D01*
X8112385Y-8551500D01*
X8083814Y-8508643D01*
X8069528Y-8494357D01*
X1353100Y-8982500D02*
X1583100Y-9212500D01*
X1583100Y-8982500D02*
X1353100Y-9212500D01*
X1583100Y-9097500D02*
G75*
G03*
X1583100Y-9097500I-115000J0D01*
G01*
X1855243Y-8961786D02*
X1869528Y-8947500D01*
X1898100Y-8933214D01*
X1969528Y-8933214D01*
X1998100Y-8947500D01*
X2012385Y-8961786D01*
X2026671Y-8990357D01*
X2026671Y-9018929D01*
X2012385Y-9061786D01*
X1840957Y-9233214D01*
X2026671Y-9233214D01*
X2155243Y-9204643D02*
X2169528Y-9218929D01*
X2155243Y-9233214D01*
X2140957Y-9218929D01*
X2155243Y-9204643D01*
X2155243Y-9233214D01*
X2269528Y-8933214D02*
X2455243Y-8933214D01*
X2355243Y-9047500D01*
X2398100Y-9047500D01*
X2426671Y-9061786D01*
X2440957Y-9076072D01*
X2455243Y-9104643D01*
X2455243Y-9176072D01*
X2440957Y-9204643D01*
X2426671Y-9218929D01*
X2398100Y-9233214D01*
X2312386Y-9233214D01*
X2283814Y-9218929D01*
X2269528Y-9204643D01*
X2640957Y-8933214D02*
X2669528Y-8933214D01*
X2698100Y-8947500D01*
X2712386Y-8961786D01*
X2726671Y-8990357D01*
X2740957Y-9047500D01*
X2740957Y-9118929D01*
X2726671Y-9176072D01*
X2712386Y-9204643D01*
X2698100Y-9218929D01*
X2669528Y-9233214D01*
X2640957Y-9233214D01*
X2612386Y-9218929D01*
X2598100Y-9204643D01*
X2583814Y-9176072D01*
X2569528Y-9118929D01*
X2569528Y-9047500D01*
X2583814Y-8990357D01*
X2598100Y-8961786D01*
X2612386Y-8947500D01*
X2640957Y-8933214D01*
X2869528Y-9233214D02*
X2869528Y-9033214D01*
X2869528Y-9061786D02*
X2883814Y-9047500D01*
X2912385Y-9033214D01*
X2955243Y-9033214D01*
X2983814Y-9047500D01*
X2998100Y-9076072D01*
X2998100Y-9233214D01*
X2998100Y-9076072D02*
X3012385Y-9047500D01*
X3040957Y-9033214D01*
X3083814Y-9033214D01*
X3112385Y-9047500D01*
X3126671Y-9076072D01*
X3126671Y-9233214D01*
X3269528Y-9233214D02*
X3269528Y-9033214D01*
X3269528Y-9061786D02*
X3283814Y-9047500D01*
X3312385Y-9033214D01*
X3355243Y-9033214D01*
X3383814Y-9047500D01*
X3398100Y-9076072D01*
X3398100Y-9233214D01*
X3398100Y-9076072D02*
X3412385Y-9047500D01*
X3440957Y-9033214D01*
X3483814Y-9033214D01*
X3512385Y-9047500D01*
X3526671Y-9076072D01*
X3526671Y-9233214D01*
X4112385Y-8918929D02*
X3855243Y-9304643D01*
X4498100Y-8933214D02*
X4526671Y-8933214D01*
X4555243Y-8947500D01*
X4569528Y-8961786D01*
X4583814Y-8990357D01*
X4598100Y-9047500D01*
X4598100Y-9118929D01*
X4583814Y-9176072D01*
X4569528Y-9204643D01*
X4555243Y-9218929D01*
X4526671Y-9233214D01*
X4498100Y-9233214D01*
X4469528Y-9218929D01*
X4455243Y-9204643D01*
X4440957Y-9176072D01*
X4426671Y-9118929D01*
X4426671Y-9047500D01*
X4440957Y-8990357D01*
X4455243Y-8961786D01*
X4469528Y-8947500D01*
X4498100Y-8933214D01*
X4726671Y-9204643D02*
X4740957Y-9218929D01*
X4726671Y-9233214D01*
X4712386Y-9218929D01*
X4726671Y-9204643D01*
X4726671Y-9233214D01*
X4926671Y-8933214D02*
X4955243Y-8933214D01*
X4983814Y-8947500D01*
X4998100Y-8961786D01*
X5012386Y-8990357D01*
X5026671Y-9047500D01*
X5026671Y-9118929D01*
X5012386Y-9176072D01*
X4998100Y-9204643D01*
X4983814Y-9218929D01*
X4955243Y-9233214D01*
X4926671Y-9233214D01*
X4898100Y-9218929D01*
X4883814Y-9204643D01*
X4869528Y-9176072D01*
X4855243Y-9118929D01*
X4855243Y-9047500D01*
X4869528Y-8990357D01*
X4883814Y-8961786D01*
X4898100Y-8947500D01*
X4926671Y-8933214D01*
X5169528Y-9233214D02*
X5226671Y-9233214D01*
X5255243Y-9218929D01*
X5269528Y-9204643D01*
X5298100Y-9161786D01*
X5312386Y-9104643D01*
X5312386Y-8990357D01*
X5298100Y-8961786D01*
X5283814Y-8947500D01*
X5255243Y-8933214D01*
X5198100Y-8933214D01*
X5169528Y-8947500D01*
X5155243Y-8961786D01*
X5140957Y-8990357D01*
X5140957Y-9061786D01*
X5155243Y-9090357D01*
X5169528Y-9104643D01*
X5198100Y-9118929D01*
X5255243Y-9118929D01*
X5283814Y-9104643D01*
X5298100Y-9090357D01*
X5312386Y-9061786D01*
X5598100Y-9233214D02*
X5426671Y-9233214D01*
X5512386Y-9233214D02*
X5512386Y-8933214D01*
X5483814Y-8976072D01*
X5455243Y-9004643D01*
X5426671Y-9018929D01*
X5712385Y-8933214D02*
X5712385Y-8990357D01*
X5826671Y-8933214D02*
X5826671Y-8990357D01*
X6269528Y-9347500D02*
X6255243Y-9333214D01*
X6226671Y-9290357D01*
X6212385Y-9261786D01*
X6198100Y-9218929D01*
X6183814Y-9147500D01*
X6183814Y-9090357D01*
X6198100Y-9018929D01*
X6212385Y-8976072D01*
X6226671Y-8947500D01*
X6255243Y-8904643D01*
X6269528Y-8890357D01*
X6369528Y-8961786D02*
X6383814Y-8947500D01*
X6412385Y-8933214D01*
X6483814Y-8933214D01*
X6512385Y-8947500D01*
X6526671Y-8961786D01*
X6540957Y-8990357D01*
X6540957Y-9018929D01*
X6526671Y-9061786D01*
X6355243Y-9233214D01*
X6540957Y-9233214D01*
X6898100Y-9233214D02*
X6898100Y-8933214D01*
X7026671Y-9233214D02*
X7026671Y-9076072D01*
X7012385Y-9047500D01*
X6983814Y-9033214D01*
X6940957Y-9033214D01*
X6912385Y-9047500D01*
X6898100Y-9061786D01*
X7212385Y-9233214D02*
X7183814Y-9218929D01*
X7169528Y-9204643D01*
X7155243Y-9176072D01*
X7155243Y-9090357D01*
X7169528Y-9061786D01*
X7183814Y-9047500D01*
X7212385Y-9033214D01*
X7255243Y-9033214D01*
X7283814Y-9047500D01*
X7298100Y-9061786D01*
X7312385Y-9090357D01*
X7312385Y-9176072D01*
X7298100Y-9204643D01*
X7283814Y-9218929D01*
X7255243Y-9233214D01*
X7212385Y-9233214D01*
X7483814Y-9233214D02*
X7455243Y-9218929D01*
X7440957Y-9190357D01*
X7440957Y-8933214D01*
X7712385Y-9218929D02*
X7683814Y-9233214D01*
X7626671Y-9233214D01*
X7598100Y-9218929D01*
X7583814Y-9190357D01*
X7583814Y-9076072D01*
X7598100Y-9047500D01*
X7626671Y-9033214D01*
X7683814Y-9033214D01*
X7712385Y-9047500D01*
X7726671Y-9076072D01*
X7726671Y-9104643D01*
X7583814Y-9133214D01*
X7840957Y-9218929D02*
X7869528Y-9233214D01*
X7926671Y-9233214D01*
X7955243Y-9218929D01*
X7969528Y-9190357D01*
X7969528Y-9176072D01*
X7955243Y-9147500D01*
X7926671Y-9133214D01*
X7883814Y-9133214D01*
X7855243Y-9118929D01*
X7840957Y-9090357D01*
X7840957Y-9076072D01*
X7855243Y-9047500D01*
X7883814Y-9033214D01*
X7926671Y-9033214D01*
X7955243Y-9047500D01*
X8069528Y-9347500D02*
X8083814Y-9333214D01*
X8112385Y-9290357D01*
X8126671Y-9261786D01*
X8140957Y-9218929D01*
X8155243Y-9147500D01*
X8155243Y-9090357D01*
X8140957Y-9018929D01*
X8126671Y-8976072D01*
X8112385Y-8947500D01*
X8083814Y-8904643D01*
X8069528Y-8890357D01*
M02*
