%TF.GenerationSoftware,KiCad,Pcbnew,(5.1.8)-1*%
%TF.CreationDate,2021-04-24T14:29:12+03:00*%
%TF.ProjectId,lcd_pcb,6c63645f-7063-4622-9e6b-696361645f70,rev?*%
%TF.SameCoordinates,Original*%
%TF.FileFunction,Soldermask,Top*%
%TF.FilePolarity,Negative*%
%FSLAX46Y46*%
G04 Gerber Fmt 4.6, Leading zero omitted, Abs format (unit mm)*
G04 Created by KiCad (PCBNEW (5.1.8)-1) date 2021-04-24 14:29:12*
%MOMM*%
%LPD*%
G01*
G04 APERTURE LIST*
%ADD10C,1.700000*%
%ADD11C,0.700000*%
%ADD12C,4.400000*%
%ADD13C,3.500000*%
%ADD14R,1.524000X1.524000*%
%ADD15C,1.524000*%
G04 APERTURE END LIST*
%TO.C,C1*%
G36*
G01*
X25269000Y-40505500D02*
X24769000Y-40505500D01*
G75*
G02*
X24544000Y-40280500I0J225000D01*
G01*
X24544000Y-39830500D01*
G75*
G02*
X24769000Y-39605500I225000J0D01*
G01*
X25269000Y-39605500D01*
G75*
G02*
X25494000Y-39830500I0J-225000D01*
G01*
X25494000Y-40280500D01*
G75*
G02*
X25269000Y-40505500I-225000J0D01*
G01*
G37*
G36*
G01*
X25269000Y-42055500D02*
X24769000Y-42055500D01*
G75*
G02*
X24544000Y-41830500I0J225000D01*
G01*
X24544000Y-41380500D01*
G75*
G02*
X24769000Y-41155500I225000J0D01*
G01*
X25269000Y-41155500D01*
G75*
G02*
X25494000Y-41380500I0J-225000D01*
G01*
X25494000Y-41830500D01*
G75*
G02*
X25269000Y-42055500I-225000J0D01*
G01*
G37*
%TD*%
%TO.C,J4*%
G36*
G01*
X20446000Y-24698000D02*
X20446000Y-23498000D01*
G75*
G02*
X20696000Y-23248000I250000J0D01*
G01*
X21896000Y-23248000D01*
G75*
G02*
X22146000Y-23498000I0J-250000D01*
G01*
X22146000Y-24698000D01*
G75*
G02*
X21896000Y-24948000I-250000J0D01*
G01*
X20696000Y-24948000D01*
G75*
G02*
X20446000Y-24698000I0J250000D01*
G01*
G37*
D10*
X21296000Y-26638000D03*
X21296000Y-29178000D03*
X21296000Y-31718000D03*
X23836000Y-24098000D03*
X23836000Y-26638000D03*
X23836000Y-29178000D03*
X23836000Y-31718000D03*
%TD*%
%TO.C,J3*%
G36*
G01*
X27700000Y-36281000D02*
X27700000Y-35519000D01*
G75*
G02*
X28081000Y-35138000I381000J0D01*
G01*
X30319000Y-35138000D01*
G75*
G02*
X30700000Y-35519000I0J-381000D01*
G01*
X30700000Y-36281000D01*
G75*
G02*
X30319000Y-36662000I-381000J0D01*
G01*
X28081000Y-36662000D01*
G75*
G02*
X27700000Y-36281000I0J381000D01*
G01*
G37*
G36*
G01*
X27700000Y-33741000D02*
X27700000Y-32979000D01*
G75*
G02*
X28081000Y-32598000I381000J0D01*
G01*
X30319000Y-32598000D01*
G75*
G02*
X30700000Y-32979000I0J-381000D01*
G01*
X30700000Y-33741000D01*
G75*
G02*
X30319000Y-34122000I-381000J0D01*
G01*
X28081000Y-34122000D01*
G75*
G02*
X27700000Y-33741000I0J381000D01*
G01*
G37*
G36*
G01*
X27700000Y-31201000D02*
X27700000Y-30439000D01*
G75*
G02*
X28081000Y-30058000I381000J0D01*
G01*
X30319000Y-30058000D01*
G75*
G02*
X30700000Y-30439000I0J-381000D01*
G01*
X30700000Y-31201000D01*
G75*
G02*
X30319000Y-31582000I-381000J0D01*
G01*
X28081000Y-31582000D01*
G75*
G02*
X27700000Y-31201000I0J381000D01*
G01*
G37*
G36*
G01*
X27700000Y-28661000D02*
X27700000Y-27899000D01*
G75*
G02*
X28081000Y-27518000I381000J0D01*
G01*
X30319000Y-27518000D01*
G75*
G02*
X30700000Y-27899000I0J-381000D01*
G01*
X30700000Y-28661000D01*
G75*
G02*
X30319000Y-29042000I-381000J0D01*
G01*
X28081000Y-29042000D01*
G75*
G02*
X27700000Y-28661000I0J381000D01*
G01*
G37*
G36*
G01*
X27700000Y-26121000D02*
X27700000Y-25359000D01*
G75*
G02*
X28081000Y-24978000I381000J0D01*
G01*
X30319000Y-24978000D01*
G75*
G02*
X30700000Y-25359000I0J-381000D01*
G01*
X30700000Y-26121000D01*
G75*
G02*
X30319000Y-26502000I-381000J0D01*
G01*
X28081000Y-26502000D01*
G75*
G02*
X27700000Y-26121000I0J381000D01*
G01*
G37*
%TD*%
D11*
%TO.C,J6*%
X22472725Y-39551274D03*
X21305999Y-39068000D03*
X20139273Y-39551274D03*
X19655999Y-40718000D03*
X20139273Y-41884726D03*
X21305999Y-42368000D03*
X22472725Y-41884726D03*
X22955999Y-40718000D03*
D12*
X21305999Y-40718000D03*
%TD*%
D11*
%TO.C,J5*%
X34472725Y-56551274D03*
X33305999Y-56068000D03*
X32139273Y-56551274D03*
X31655999Y-57718000D03*
X32139273Y-58884726D03*
X33305999Y-59368000D03*
X34472725Y-58884726D03*
X34955999Y-57718000D03*
D12*
X33305999Y-57718000D03*
%TD*%
D11*
%TO.C,J2*%
X34472725Y-18551274D03*
X33305999Y-18068000D03*
X32139273Y-18551274D03*
X31655999Y-19718000D03*
X32139273Y-20884726D03*
X33305999Y-21368000D03*
X34472725Y-20884726D03*
X34955999Y-19718000D03*
D12*
X33305999Y-19718000D03*
%TD*%
D13*
%TO.C,J1*%
X24586000Y-57458000D03*
X24586000Y-44318000D03*
D14*
X27296000Y-47388000D03*
D15*
X27296000Y-49888000D03*
X27296000Y-51888000D03*
X27296000Y-54388000D03*
%TD*%
M02*
