%TF.GenerationSoftware,KiCad,Pcbnew,(5.1.8)-1*%
%TF.CreationDate,2021-04-24T14:29:12+03:00*%
%TF.ProjectId,lcd_pcb,6c63645f-7063-4622-9e6b-696361645f70,rev?*%
%TF.SameCoordinates,Original*%
%TF.FileFunction,Copper,L1,Top*%
%TF.FilePolarity,Positive*%
%FSLAX46Y46*%
G04 Gerber Fmt 4.6, Leading zero omitted, Abs format (unit mm)*
G04 Created by KiCad (PCBNEW (5.1.8)-1) date 2021-04-24 14:29:12*
%MOMM*%
%LPD*%
G01*
G04 APERTURE LIST*
%TA.AperFunction,ComponentPad*%
%ADD10C,1.700000*%
%TD*%
%TA.AperFunction,ComponentPad*%
%ADD11C,0.700000*%
%TD*%
%TA.AperFunction,ComponentPad*%
%ADD12C,4.400000*%
%TD*%
%TA.AperFunction,ComponentPad*%
%ADD13C,3.500000*%
%TD*%
%TA.AperFunction,ComponentPad*%
%ADD14R,1.524000X1.524000*%
%TD*%
%TA.AperFunction,ComponentPad*%
%ADD15C,1.524000*%
%TD*%
%TA.AperFunction,ViaPad*%
%ADD16C,0.800000*%
%TD*%
%TA.AperFunction,Conductor*%
%ADD17C,0.400000*%
%TD*%
%TA.AperFunction,Conductor*%
%ADD18C,0.250000*%
%TD*%
%TA.AperFunction,Conductor*%
%ADD19C,0.254000*%
%TD*%
%TA.AperFunction,Conductor*%
%ADD20C,0.100000*%
%TD*%
G04 APERTURE END LIST*
%TO.P,C1,2*%
%TO.N,GND*%
%TA.AperFunction,SMDPad,CuDef*%
G36*
G01*
X25269000Y-40505500D02*
X24769000Y-40505500D01*
G75*
G02*
X24544000Y-40280500I0J225000D01*
G01*
X24544000Y-39830500D01*
G75*
G02*
X24769000Y-39605500I225000J0D01*
G01*
X25269000Y-39605500D01*
G75*
G02*
X25494000Y-39830500I0J-225000D01*
G01*
X25494000Y-40280500D01*
G75*
G02*
X25269000Y-40505500I-225000J0D01*
G01*
G37*
%TD.AperFunction*%
%TO.P,C1,1*%
%TO.N,Net-(C1-Pad1)*%
%TA.AperFunction,SMDPad,CuDef*%
G36*
G01*
X25269000Y-42055500D02*
X24769000Y-42055500D01*
G75*
G02*
X24544000Y-41830500I0J225000D01*
G01*
X24544000Y-41380500D01*
G75*
G02*
X24769000Y-41155500I225000J0D01*
G01*
X25269000Y-41155500D01*
G75*
G02*
X25494000Y-41380500I0J-225000D01*
G01*
X25494000Y-41830500D01*
G75*
G02*
X25269000Y-42055500I-225000J0D01*
G01*
G37*
%TD.AperFunction*%
%TD*%
%TO.P,J4,1*%
%TO.N,GND*%
%TA.AperFunction,ComponentPad*%
G36*
G01*
X20446000Y-24698000D02*
X20446000Y-23498000D01*
G75*
G02*
X20696000Y-23248000I250000J0D01*
G01*
X21896000Y-23248000D01*
G75*
G02*
X22146000Y-23498000I0J-250000D01*
G01*
X22146000Y-24698000D01*
G75*
G02*
X21896000Y-24948000I-250000J0D01*
G01*
X20696000Y-24948000D01*
G75*
G02*
X20446000Y-24698000I0J250000D01*
G01*
G37*
%TD.AperFunction*%
D10*
%TO.P,J4,3*%
%TO.N,Net-(J1-Pad1)*%
X21296000Y-26638000D03*
%TO.P,J4,5*%
X21296000Y-29178000D03*
%TO.P,J4,7*%
%TO.N,/Res*%
X21296000Y-31718000D03*
%TO.P,J4,2*%
%TO.N,/DP*%
X23836000Y-24098000D03*
%TO.P,J4,4*%
%TO.N,/DM*%
X23836000Y-26638000D03*
%TO.P,J4,6*%
%TO.N,/RX*%
X23836000Y-29178000D03*
%TO.P,J4,8*%
%TO.N,/TX*%
X23836000Y-31718000D03*
%TD*%
%TO.P,J3,5*%
%TO.N,GND*%
%TA.AperFunction,ComponentPad*%
G36*
G01*
X27700000Y-36281000D02*
X27700000Y-35519000D01*
G75*
G02*
X28081000Y-35138000I381000J0D01*
G01*
X30319000Y-35138000D01*
G75*
G02*
X30700000Y-35519000I0J-381000D01*
G01*
X30700000Y-36281000D01*
G75*
G02*
X30319000Y-36662000I-381000J0D01*
G01*
X28081000Y-36662000D01*
G75*
G02*
X27700000Y-36281000I0J381000D01*
G01*
G37*
%TD.AperFunction*%
%TO.P,J3,4*%
%TO.N,/RX*%
%TA.AperFunction,ComponentPad*%
G36*
G01*
X27700000Y-33741000D02*
X27700000Y-32979000D01*
G75*
G02*
X28081000Y-32598000I381000J0D01*
G01*
X30319000Y-32598000D01*
G75*
G02*
X30700000Y-32979000I0J-381000D01*
G01*
X30700000Y-33741000D01*
G75*
G02*
X30319000Y-34122000I-381000J0D01*
G01*
X28081000Y-34122000D01*
G75*
G02*
X27700000Y-33741000I0J381000D01*
G01*
G37*
%TD.AperFunction*%
%TO.P,J3,3*%
%TO.N,/TX*%
%TA.AperFunction,ComponentPad*%
G36*
G01*
X27700000Y-31201000D02*
X27700000Y-30439000D01*
G75*
G02*
X28081000Y-30058000I381000J0D01*
G01*
X30319000Y-30058000D01*
G75*
G02*
X30700000Y-30439000I0J-381000D01*
G01*
X30700000Y-31201000D01*
G75*
G02*
X30319000Y-31582000I-381000J0D01*
G01*
X28081000Y-31582000D01*
G75*
G02*
X27700000Y-31201000I0J381000D01*
G01*
G37*
%TD.AperFunction*%
%TO.P,J3,2*%
%TO.N,Net-(J1-Pad1)*%
%TA.AperFunction,ComponentPad*%
G36*
G01*
X27700000Y-28661000D02*
X27700000Y-27899000D01*
G75*
G02*
X28081000Y-27518000I381000J0D01*
G01*
X30319000Y-27518000D01*
G75*
G02*
X30700000Y-27899000I0J-381000D01*
G01*
X30700000Y-28661000D01*
G75*
G02*
X30319000Y-29042000I-381000J0D01*
G01*
X28081000Y-29042000D01*
G75*
G02*
X27700000Y-28661000I0J381000D01*
G01*
G37*
%TD.AperFunction*%
%TO.P,J3,1*%
%TO.N,/Res*%
%TA.AperFunction,ComponentPad*%
G36*
G01*
X27700000Y-26121000D02*
X27700000Y-25359000D01*
G75*
G02*
X28081000Y-24978000I381000J0D01*
G01*
X30319000Y-24978000D01*
G75*
G02*
X30700000Y-25359000I0J-381000D01*
G01*
X30700000Y-26121000D01*
G75*
G02*
X30319000Y-26502000I-381000J0D01*
G01*
X28081000Y-26502000D01*
G75*
G02*
X27700000Y-26121000I0J381000D01*
G01*
G37*
%TD.AperFunction*%
%TD*%
D11*
%TO.P,J6,1*%
%TO.N,GND*%
X22472725Y-39551274D03*
X21305999Y-39068000D03*
X20139273Y-39551274D03*
X19655999Y-40718000D03*
X20139273Y-41884726D03*
X21305999Y-42368000D03*
X22472725Y-41884726D03*
X22955999Y-40718000D03*
D12*
X21305999Y-40718000D03*
%TD*%
D11*
%TO.P,J5,1*%
%TO.N,GND*%
X34472725Y-56551274D03*
X33305999Y-56068000D03*
X32139273Y-56551274D03*
X31655999Y-57718000D03*
X32139273Y-58884726D03*
X33305999Y-59368000D03*
X34472725Y-58884726D03*
X34955999Y-57718000D03*
D12*
X33305999Y-57718000D03*
%TD*%
D11*
%TO.P,J2,1*%
%TO.N,GND*%
X34472725Y-18551274D03*
X33305999Y-18068000D03*
X32139273Y-18551274D03*
X31655999Y-19718000D03*
X32139273Y-20884726D03*
X33305999Y-21368000D03*
X34472725Y-20884726D03*
X34955999Y-19718000D03*
D12*
X33305999Y-19718000D03*
%TD*%
D13*
%TO.P,J1,5*%
%TO.N,Net-(C1-Pad1)*%
X24586000Y-57458000D03*
X24586000Y-44318000D03*
D14*
%TO.P,J1,1*%
%TO.N,Net-(J1-Pad1)*%
X27296000Y-47388000D03*
D15*
%TO.P,J1,2*%
%TO.N,/DM*%
X27296000Y-49888000D03*
%TO.P,J1,3*%
%TO.N,/DP*%
X27296000Y-51888000D03*
%TO.P,J1,4*%
%TO.N,GND*%
X27296000Y-54388000D03*
%TD*%
D16*
%TO.N,GND*%
X24162000Y-34868000D03*
X34576000Y-23438000D03*
X31020000Y-23438000D03*
X28480000Y-21152000D03*
X25686000Y-18866000D03*
X18320000Y-50616000D03*
X23146000Y-50616000D03*
X19844000Y-58236000D03*
X28988000Y-59760000D03*
X33306000Y-53156000D03*
X33306000Y-47568000D03*
X33560000Y-41726000D03*
X21622000Y-19628000D03*
X32400000Y-26900000D03*
X32400000Y-29500000D03*
X32400000Y-32000000D03*
X32400000Y-34500000D03*
X32400000Y-37400000D03*
X17300000Y-36400000D03*
X17400000Y-29600000D03*
X17300000Y-21900000D03*
%TD*%
D17*
%TO.N,GND*%
X21305999Y-41037999D02*
X21305999Y-40718000D01*
X21305999Y-40718000D02*
X19106000Y-38518001D01*
X19106000Y-22144000D02*
X21622000Y-19628000D01*
X31720021Y-19628000D02*
X31717137Y-19631461D01*
X21622000Y-19628000D02*
X31720021Y-19628000D01*
X19106000Y-23970000D02*
X19106000Y-22144000D01*
X19106000Y-38518001D02*
X19106000Y-23970000D01*
%TO.N,Net-(C1-Pad1)*%
X24586000Y-54596000D02*
X24586000Y-44318000D01*
X24586000Y-57458000D02*
X24586000Y-54596000D01*
X24586000Y-54342000D02*
X24586000Y-54596000D01*
X24632000Y-54388000D02*
X24586000Y-54342000D01*
%TO.N,GND*%
X33045999Y-57458000D02*
X33305999Y-57718000D01*
X21622000Y-19628000D02*
X21622000Y-19628000D01*
X19234000Y-24098000D02*
X19106000Y-23970000D01*
X21296000Y-24098000D02*
X19234000Y-24098000D01*
D18*
X21968499Y-40055500D02*
X21305999Y-40718000D01*
X24574500Y-40055500D02*
X21968499Y-40055500D01*
D17*
%TO.N,Net-(J1-Pad1)*%
X21470000Y-29178000D02*
X21368000Y-29280000D01*
X19800000Y-29178000D02*
X21296000Y-29178000D01*
X19800000Y-29178000D02*
X19800000Y-27100000D01*
X20262000Y-26638000D02*
X21296000Y-26638000D01*
X19800000Y-27100000D02*
X20262000Y-26638000D01*
X27296000Y-39615000D02*
X19800000Y-32119000D01*
X19800000Y-32119000D02*
X19800000Y-29178000D01*
X27296000Y-47388000D02*
X27296000Y-39615000D01*
%TO.N,/RX*%
X23836000Y-29764000D02*
X23836000Y-29178000D01*
X22585999Y-31014001D02*
X23836000Y-29764000D01*
X22585999Y-32318001D02*
X22585999Y-31014001D01*
X23611998Y-33344000D02*
X22585999Y-32318001D01*
X29200000Y-33360000D02*
X23611998Y-33344000D01*
%TO.N,/TX*%
X25582000Y-31718000D02*
X23836000Y-31718000D01*
X26480000Y-30820000D02*
X25582000Y-31718000D01*
X29200000Y-30820000D02*
X26480000Y-30820000D01*
%TO.N,/Res*%
X26960000Y-25740000D02*
X29200000Y-25740000D01*
X23275997Y-27888001D02*
X24811999Y-27888001D01*
X22585999Y-28577999D02*
X23275997Y-27888001D01*
X24811999Y-27888001D02*
X26960000Y-25740000D01*
X22585999Y-29738003D02*
X22585999Y-28577999D01*
X21296000Y-31028002D02*
X22585999Y-29738003D01*
X21296000Y-31718000D02*
X21296000Y-31028002D01*
D18*
%TO.N,Net-(C1-Pad1)*%
X25019000Y-43885000D02*
X24586000Y-44318000D01*
X25019000Y-41605500D02*
X25019000Y-43885000D01*
%TD*%
D19*
%TO.N,GND*%
X33824708Y-16655047D02*
X34233249Y-16778393D01*
X34610044Y-16978738D01*
X34940749Y-17248456D01*
X35212769Y-17577272D01*
X35235927Y-17620102D01*
X35230108Y-17614283D01*
X35116168Y-17728223D01*
X34876023Y-17340982D01*
X34382122Y-17080359D01*
X33846866Y-16921099D01*
X33290825Y-16869322D01*
X32735367Y-16927019D01*
X32201838Y-17091972D01*
X31735975Y-17340982D01*
X31495829Y-17728225D01*
X32108027Y-18340423D01*
X31928422Y-18520028D01*
X31316224Y-17907830D01*
X30928981Y-18147976D01*
X30668358Y-18641877D01*
X30509098Y-19177133D01*
X30457321Y-19733174D01*
X30515018Y-20288632D01*
X30679971Y-20822161D01*
X30928981Y-21288024D01*
X31316224Y-21528170D01*
X31928422Y-20915972D01*
X32108027Y-21095577D01*
X31495829Y-21707775D01*
X31735975Y-22095018D01*
X32229876Y-22355641D01*
X32765132Y-22514901D01*
X33321173Y-22566678D01*
X33876631Y-22508981D01*
X34410160Y-22344028D01*
X34876023Y-22095018D01*
X35116169Y-21707775D01*
X34503971Y-21095577D01*
X34683576Y-20915972D01*
X35295774Y-21528170D01*
X35590001Y-21345707D01*
X35590000Y-56090292D01*
X35295774Y-55907830D01*
X33485604Y-57718000D01*
X33499747Y-57732143D01*
X33320142Y-57911748D01*
X33305999Y-57897605D01*
X31495829Y-59707775D01*
X31735975Y-60095018D01*
X32229876Y-60355641D01*
X32765132Y-60514901D01*
X33321173Y-60566678D01*
X33876631Y-60508981D01*
X34410160Y-60344028D01*
X34876023Y-60095018D01*
X35116168Y-59707777D01*
X35161463Y-59753072D01*
X34893459Y-60081676D01*
X34534564Y-60378579D01*
X34124845Y-60600113D01*
X33679894Y-60737849D01*
X33183705Y-60790000D01*
X18784958Y-60790000D01*
X16615999Y-58714691D01*
X16615999Y-40733174D01*
X18457321Y-40733174D01*
X18515018Y-41288632D01*
X18679971Y-41822161D01*
X18928981Y-42288024D01*
X19316224Y-42528170D01*
X21126394Y-40718000D01*
X19316224Y-38907830D01*
X18928981Y-39147976D01*
X18668358Y-39641877D01*
X18509098Y-40177133D01*
X18457321Y-40733174D01*
X16615999Y-40733174D01*
X16615999Y-38728225D01*
X19495829Y-38728225D01*
X21305999Y-40538395D01*
X23116169Y-38728225D01*
X22876023Y-38340982D01*
X22382122Y-38080359D01*
X21846866Y-37921099D01*
X21290825Y-37869322D01*
X20735367Y-37927019D01*
X20201838Y-38091972D01*
X19735975Y-38340982D01*
X19495829Y-38728225D01*
X16615999Y-38728225D01*
X16615999Y-27100000D01*
X18960960Y-27100000D01*
X18965001Y-27141028D01*
X18965000Y-29136981D01*
X18960960Y-29178000D01*
X18965001Y-29219029D01*
X18965000Y-32077981D01*
X18960960Y-32119000D01*
X18965000Y-32160018D01*
X18977082Y-32282688D01*
X19024828Y-32440086D01*
X19102364Y-32585145D01*
X19206709Y-32712291D01*
X19238579Y-32738446D01*
X25467982Y-38967850D01*
X25304750Y-38970500D01*
X25146000Y-39129250D01*
X25146000Y-39928500D01*
X25970250Y-39928500D01*
X26129000Y-39769750D01*
X26131587Y-39631455D01*
X26461001Y-39960870D01*
X26461001Y-42831251D01*
X26438550Y-42797651D01*
X26106349Y-42465450D01*
X25946627Y-42358727D01*
X25986618Y-42309997D01*
X26066375Y-42160783D01*
X26115488Y-41998877D01*
X26132072Y-41830500D01*
X26132072Y-41380500D01*
X26115488Y-41212123D01*
X26066375Y-41050217D01*
X25988300Y-40904149D01*
X26024537Y-40859994D01*
X26083502Y-40749680D01*
X26119812Y-40629982D01*
X26132072Y-40505500D01*
X26129000Y-40341250D01*
X25970250Y-40182500D01*
X25146000Y-40182500D01*
X25146000Y-40202500D01*
X24892000Y-40202500D01*
X24892000Y-40182500D01*
X24872000Y-40182500D01*
X24872000Y-39928500D01*
X24892000Y-39928500D01*
X24892000Y-39129250D01*
X24733250Y-38970500D01*
X24544000Y-38967428D01*
X24419518Y-38979688D01*
X24299820Y-39015998D01*
X24189506Y-39074963D01*
X24092815Y-39154315D01*
X24013463Y-39251006D01*
X23954498Y-39361320D01*
X23918188Y-39481018D01*
X23909295Y-39571311D01*
X23683017Y-39147976D01*
X23295774Y-38907830D01*
X21485604Y-40718000D01*
X21499747Y-40732143D01*
X21320142Y-40911748D01*
X21305999Y-40897605D01*
X19495829Y-42707775D01*
X19735975Y-43095018D01*
X20229876Y-43355641D01*
X20765132Y-43514901D01*
X21321173Y-43566678D01*
X21876631Y-43508981D01*
X22407599Y-43344820D01*
X22292654Y-43622321D01*
X22201000Y-44083098D01*
X22201000Y-44552902D01*
X22292654Y-45013679D01*
X22472440Y-45447721D01*
X22733450Y-45838349D01*
X23065651Y-46170550D01*
X23456279Y-46431560D01*
X23751001Y-46553638D01*
X23751000Y-54300981D01*
X23746960Y-54342000D01*
X23751000Y-54383018D01*
X23751000Y-54637019D01*
X23751001Y-54637029D01*
X23751001Y-55222362D01*
X23456279Y-55344440D01*
X23065651Y-55605450D01*
X22733450Y-55937651D01*
X22472440Y-56328279D01*
X22292654Y-56762321D01*
X22201000Y-57223098D01*
X22201000Y-57692902D01*
X22292654Y-58153679D01*
X22472440Y-58587721D01*
X22733450Y-58978349D01*
X23065651Y-59310550D01*
X23456279Y-59571560D01*
X23890321Y-59751346D01*
X24351098Y-59843000D01*
X24820902Y-59843000D01*
X25281679Y-59751346D01*
X25715721Y-59571560D01*
X26106349Y-59310550D01*
X26438550Y-58978349D01*
X26699560Y-58587721D01*
X26879346Y-58153679D01*
X26962989Y-57733174D01*
X30457321Y-57733174D01*
X30515018Y-58288632D01*
X30679971Y-58822161D01*
X30928981Y-59288024D01*
X31316224Y-59528170D01*
X33126394Y-57718000D01*
X31316224Y-55907830D01*
X30928981Y-56147976D01*
X30668358Y-56641877D01*
X30509098Y-57177133D01*
X30457321Y-57733174D01*
X26962989Y-57733174D01*
X26971000Y-57692902D01*
X26971000Y-57223098D01*
X26879346Y-56762321D01*
X26699560Y-56328279D01*
X26438550Y-55937651D01*
X26106349Y-55605450D01*
X25729378Y-55353565D01*
X26510040Y-55353565D01*
X26577020Y-55593656D01*
X26826048Y-55710756D01*
X27093135Y-55777023D01*
X27368017Y-55789910D01*
X27640133Y-55748922D01*
X27697571Y-55728225D01*
X31495829Y-55728225D01*
X33305999Y-57538395D01*
X35116169Y-55728225D01*
X34876023Y-55340982D01*
X34382122Y-55080359D01*
X33846866Y-54921099D01*
X33290825Y-54869322D01*
X32735367Y-54927019D01*
X32201838Y-55091972D01*
X31735975Y-55340982D01*
X31495829Y-55728225D01*
X27697571Y-55728225D01*
X27899023Y-55655636D01*
X28014980Y-55593656D01*
X28081960Y-55353565D01*
X27296000Y-54567605D01*
X26510040Y-55353565D01*
X25729378Y-55353565D01*
X25715721Y-55344440D01*
X25421000Y-55222363D01*
X25421000Y-54663501D01*
X25454918Y-54551688D01*
X25463946Y-54460017D01*
X25894090Y-54460017D01*
X25935078Y-54732133D01*
X26028364Y-54991023D01*
X26090344Y-55106980D01*
X26330435Y-55173960D01*
X27116395Y-54388000D01*
X27475605Y-54388000D01*
X28261565Y-55173960D01*
X28501656Y-55106980D01*
X28618756Y-54857952D01*
X28685023Y-54590865D01*
X28697910Y-54315983D01*
X28656922Y-54043867D01*
X28563636Y-53784977D01*
X28501656Y-53669020D01*
X28261565Y-53602040D01*
X27475605Y-54388000D01*
X27116395Y-54388000D01*
X26330435Y-53602040D01*
X26090344Y-53669020D01*
X25973244Y-53918048D01*
X25906977Y-54185135D01*
X25894090Y-54460017D01*
X25463946Y-54460017D01*
X25471040Y-54388000D01*
X25454918Y-54224312D01*
X25421000Y-54112499D01*
X25421000Y-46553637D01*
X25715721Y-46431560D01*
X26061991Y-46200189D01*
X26003463Y-46271506D01*
X25944498Y-46381820D01*
X25908188Y-46501518D01*
X25895928Y-46626000D01*
X25895928Y-48150000D01*
X25908188Y-48274482D01*
X25944498Y-48394180D01*
X26003463Y-48504494D01*
X26082815Y-48601185D01*
X26179506Y-48680537D01*
X26289820Y-48739502D01*
X26409518Y-48775812D01*
X26441292Y-48778941D01*
X26405465Y-48802880D01*
X26210880Y-48997465D01*
X26057995Y-49226273D01*
X25952686Y-49480510D01*
X25899000Y-49750408D01*
X25899000Y-50025592D01*
X25952686Y-50295490D01*
X26057995Y-50549727D01*
X26210880Y-50778535D01*
X26320345Y-50888000D01*
X26210880Y-50997465D01*
X26057995Y-51226273D01*
X25952686Y-51480510D01*
X25899000Y-51750408D01*
X25899000Y-52025592D01*
X25952686Y-52295490D01*
X26057995Y-52549727D01*
X26210880Y-52778535D01*
X26405465Y-52973120D01*
X26634273Y-53126005D01*
X26661401Y-53137242D01*
X26577020Y-53182344D01*
X26510040Y-53422435D01*
X27296000Y-54208395D01*
X28081960Y-53422435D01*
X28014980Y-53182344D01*
X27924467Y-53139782D01*
X27957727Y-53126005D01*
X28186535Y-52973120D01*
X28381120Y-52778535D01*
X28534005Y-52549727D01*
X28639314Y-52295490D01*
X28693000Y-52025592D01*
X28693000Y-51750408D01*
X28639314Y-51480510D01*
X28534005Y-51226273D01*
X28381120Y-50997465D01*
X28271655Y-50888000D01*
X28381120Y-50778535D01*
X28534005Y-50549727D01*
X28639314Y-50295490D01*
X28693000Y-50025592D01*
X28693000Y-49750408D01*
X28639314Y-49480510D01*
X28534005Y-49226273D01*
X28381120Y-48997465D01*
X28186535Y-48802880D01*
X28150708Y-48778941D01*
X28182482Y-48775812D01*
X28302180Y-48739502D01*
X28412494Y-48680537D01*
X28509185Y-48601185D01*
X28588537Y-48504494D01*
X28647502Y-48394180D01*
X28683812Y-48274482D01*
X28696072Y-48150000D01*
X28696072Y-46626000D01*
X28683812Y-46501518D01*
X28647502Y-46381820D01*
X28588537Y-46271506D01*
X28509185Y-46174815D01*
X28412494Y-46095463D01*
X28302180Y-46036498D01*
X28182482Y-46000188D01*
X28131000Y-45995118D01*
X28131000Y-39656018D01*
X28135040Y-39615000D01*
X28118918Y-39451311D01*
X28071172Y-39293913D01*
X27993636Y-39148854D01*
X27915439Y-39053570D01*
X27915437Y-39053568D01*
X27889291Y-39021709D01*
X27857432Y-38995563D01*
X25523869Y-36662000D01*
X27061928Y-36662000D01*
X27074188Y-36786482D01*
X27110498Y-36906180D01*
X27169463Y-37016494D01*
X27248815Y-37113185D01*
X27345506Y-37192537D01*
X27455820Y-37251502D01*
X27575518Y-37287812D01*
X27700000Y-37300072D01*
X28914250Y-37297000D01*
X29073000Y-37138250D01*
X29073000Y-36027000D01*
X29327000Y-36027000D01*
X29327000Y-37138250D01*
X29485750Y-37297000D01*
X30700000Y-37300072D01*
X30824482Y-37287812D01*
X30944180Y-37251502D01*
X31054494Y-37192537D01*
X31151185Y-37113185D01*
X31230537Y-37016494D01*
X31289502Y-36906180D01*
X31325812Y-36786482D01*
X31338072Y-36662000D01*
X31335000Y-36185750D01*
X31176250Y-36027000D01*
X29327000Y-36027000D01*
X29073000Y-36027000D01*
X27223750Y-36027000D01*
X27065000Y-36185750D01*
X27061928Y-36662000D01*
X25523869Y-36662000D01*
X21926187Y-33064320D01*
X21999411Y-33033990D01*
X22072371Y-32985240D01*
X22991719Y-33904590D01*
X23017011Y-33935589D01*
X23049712Y-33962583D01*
X23050568Y-33963439D01*
X23081623Y-33988925D01*
X23143857Y-34040298D01*
X23144916Y-34040868D01*
X23145852Y-34041636D01*
X23217508Y-34079937D01*
X23288693Y-34118249D01*
X23289844Y-34118602D01*
X23290911Y-34119172D01*
X23368683Y-34142764D01*
X23445954Y-34166445D01*
X23447151Y-34166566D01*
X23448310Y-34166918D01*
X23529097Y-34174875D01*
X23568589Y-34178879D01*
X23569786Y-34178882D01*
X23611998Y-34183040D01*
X23651825Y-34179117D01*
X27170614Y-34189193D01*
X27233673Y-34307166D01*
X27360407Y-34461593D01*
X27463473Y-34546176D01*
X27455820Y-34548498D01*
X27345506Y-34607463D01*
X27248815Y-34686815D01*
X27169463Y-34783506D01*
X27110498Y-34893820D01*
X27074188Y-35013518D01*
X27061928Y-35138000D01*
X27065000Y-35614250D01*
X27223750Y-35773000D01*
X29073000Y-35773000D01*
X29073000Y-35753000D01*
X29327000Y-35753000D01*
X29327000Y-35773000D01*
X31176250Y-35773000D01*
X31335000Y-35614250D01*
X31338072Y-35138000D01*
X31325812Y-35013518D01*
X31289502Y-34893820D01*
X31230537Y-34783506D01*
X31151185Y-34686815D01*
X31054494Y-34607463D01*
X30944180Y-34548498D01*
X30936527Y-34546176D01*
X31039593Y-34461593D01*
X31166327Y-34307166D01*
X31260500Y-34130982D01*
X31318491Y-33939811D01*
X31338072Y-33741000D01*
X31338072Y-32979000D01*
X31318491Y-32780189D01*
X31260500Y-32589018D01*
X31166327Y-32412834D01*
X31039593Y-32258407D01*
X30885166Y-32131673D01*
X30807202Y-32090000D01*
X30885166Y-32048327D01*
X31039593Y-31921593D01*
X31166327Y-31767166D01*
X31260500Y-31590982D01*
X31318491Y-31399811D01*
X31338072Y-31201000D01*
X31338072Y-30439000D01*
X31318491Y-30240189D01*
X31260500Y-30049018D01*
X31166327Y-29872834D01*
X31039593Y-29718407D01*
X30885166Y-29591673D01*
X30807202Y-29550000D01*
X30885166Y-29508327D01*
X31039593Y-29381593D01*
X31166327Y-29227166D01*
X31260500Y-29050982D01*
X31318491Y-28859811D01*
X31338072Y-28661000D01*
X31338072Y-27899000D01*
X31318491Y-27700189D01*
X31260500Y-27509018D01*
X31166327Y-27332834D01*
X31039593Y-27178407D01*
X30885166Y-27051673D01*
X30807202Y-27010000D01*
X30885166Y-26968327D01*
X31039593Y-26841593D01*
X31166327Y-26687166D01*
X31260500Y-26510982D01*
X31318491Y-26319811D01*
X31338072Y-26121000D01*
X31338072Y-25359000D01*
X31318491Y-25160189D01*
X31260500Y-24969018D01*
X31166327Y-24792834D01*
X31039593Y-24638407D01*
X30885166Y-24511673D01*
X30708982Y-24417500D01*
X30517811Y-24359509D01*
X30319000Y-24339928D01*
X28081000Y-24339928D01*
X27882189Y-24359509D01*
X27691018Y-24417500D01*
X27514834Y-24511673D01*
X27360407Y-24638407D01*
X27233673Y-24792834D01*
X27173719Y-24905000D01*
X27001018Y-24905000D01*
X26959999Y-24900960D01*
X26918981Y-24905000D01*
X26796311Y-24917082D01*
X26638913Y-24964828D01*
X26493854Y-25042364D01*
X26366709Y-25146709D01*
X26340559Y-25178573D01*
X25272287Y-26246845D01*
X25263932Y-26204842D01*
X25151990Y-25934589D01*
X24989475Y-25691368D01*
X24782632Y-25484525D01*
X24608240Y-25368000D01*
X24782632Y-25251475D01*
X24989475Y-25044632D01*
X25151990Y-24801411D01*
X25263932Y-24531158D01*
X25321000Y-24244260D01*
X25321000Y-23951740D01*
X25263932Y-23664842D01*
X25151990Y-23394589D01*
X24989475Y-23151368D01*
X24782632Y-22944525D01*
X24539411Y-22782010D01*
X24269158Y-22670068D01*
X23982260Y-22613000D01*
X23689740Y-22613000D01*
X23402842Y-22670068D01*
X23132589Y-22782010D01*
X22889368Y-22944525D01*
X22757513Y-23076380D01*
X22735502Y-23003820D01*
X22676537Y-22893506D01*
X22597185Y-22796815D01*
X22500494Y-22717463D01*
X22390180Y-22658498D01*
X22270482Y-22622188D01*
X22146000Y-22609928D01*
X21581750Y-22613000D01*
X21423000Y-22771750D01*
X21423000Y-23971000D01*
X21443000Y-23971000D01*
X21443000Y-24225000D01*
X21423000Y-24225000D01*
X21423000Y-24245000D01*
X21169000Y-24245000D01*
X21169000Y-24225000D01*
X19969750Y-24225000D01*
X19811000Y-24383750D01*
X19807928Y-24948000D01*
X19820188Y-25072482D01*
X19856498Y-25192180D01*
X19915463Y-25302494D01*
X19994815Y-25399185D01*
X20091506Y-25478537D01*
X20201820Y-25537502D01*
X20274380Y-25559513D01*
X20142525Y-25691368D01*
X20050088Y-25829710D01*
X19940913Y-25862828D01*
X19795854Y-25940364D01*
X19668709Y-26044709D01*
X19642558Y-26076574D01*
X19238574Y-26480559D01*
X19206710Y-26506709D01*
X19180562Y-26538571D01*
X19102364Y-26633855D01*
X19024828Y-26778914D01*
X18977082Y-26936312D01*
X18960960Y-27100000D01*
X16615999Y-27100000D01*
X16615999Y-23248000D01*
X19807928Y-23248000D01*
X19811000Y-23812250D01*
X19969750Y-23971000D01*
X21169000Y-23971000D01*
X21169000Y-22771750D01*
X21010250Y-22613000D01*
X20446000Y-22609928D01*
X20321518Y-22622188D01*
X20201820Y-22658498D01*
X20091506Y-22717463D01*
X19994815Y-22796815D01*
X19915463Y-22893506D01*
X19856498Y-23003820D01*
X19820188Y-23123518D01*
X19807928Y-23248000D01*
X16615999Y-23248000D01*
X16615999Y-20215994D01*
X20290203Y-16610000D01*
X33365280Y-16610000D01*
X33824708Y-16655047D01*
%TA.AperFunction,Conductor*%
D20*
G36*
X33824708Y-16655047D02*
G01*
X34233249Y-16778393D01*
X34610044Y-16978738D01*
X34940749Y-17248456D01*
X35212769Y-17577272D01*
X35235927Y-17620102D01*
X35230108Y-17614283D01*
X35116168Y-17728223D01*
X34876023Y-17340982D01*
X34382122Y-17080359D01*
X33846866Y-16921099D01*
X33290825Y-16869322D01*
X32735367Y-16927019D01*
X32201838Y-17091972D01*
X31735975Y-17340982D01*
X31495829Y-17728225D01*
X32108027Y-18340423D01*
X31928422Y-18520028D01*
X31316224Y-17907830D01*
X30928981Y-18147976D01*
X30668358Y-18641877D01*
X30509098Y-19177133D01*
X30457321Y-19733174D01*
X30515018Y-20288632D01*
X30679971Y-20822161D01*
X30928981Y-21288024D01*
X31316224Y-21528170D01*
X31928422Y-20915972D01*
X32108027Y-21095577D01*
X31495829Y-21707775D01*
X31735975Y-22095018D01*
X32229876Y-22355641D01*
X32765132Y-22514901D01*
X33321173Y-22566678D01*
X33876631Y-22508981D01*
X34410160Y-22344028D01*
X34876023Y-22095018D01*
X35116169Y-21707775D01*
X34503971Y-21095577D01*
X34683576Y-20915972D01*
X35295774Y-21528170D01*
X35590001Y-21345707D01*
X35590000Y-56090292D01*
X35295774Y-55907830D01*
X33485604Y-57718000D01*
X33499747Y-57732143D01*
X33320142Y-57911748D01*
X33305999Y-57897605D01*
X31495829Y-59707775D01*
X31735975Y-60095018D01*
X32229876Y-60355641D01*
X32765132Y-60514901D01*
X33321173Y-60566678D01*
X33876631Y-60508981D01*
X34410160Y-60344028D01*
X34876023Y-60095018D01*
X35116168Y-59707777D01*
X35161463Y-59753072D01*
X34893459Y-60081676D01*
X34534564Y-60378579D01*
X34124845Y-60600113D01*
X33679894Y-60737849D01*
X33183705Y-60790000D01*
X18784958Y-60790000D01*
X16615999Y-58714691D01*
X16615999Y-40733174D01*
X18457321Y-40733174D01*
X18515018Y-41288632D01*
X18679971Y-41822161D01*
X18928981Y-42288024D01*
X19316224Y-42528170D01*
X21126394Y-40718000D01*
X19316224Y-38907830D01*
X18928981Y-39147976D01*
X18668358Y-39641877D01*
X18509098Y-40177133D01*
X18457321Y-40733174D01*
X16615999Y-40733174D01*
X16615999Y-38728225D01*
X19495829Y-38728225D01*
X21305999Y-40538395D01*
X23116169Y-38728225D01*
X22876023Y-38340982D01*
X22382122Y-38080359D01*
X21846866Y-37921099D01*
X21290825Y-37869322D01*
X20735367Y-37927019D01*
X20201838Y-38091972D01*
X19735975Y-38340982D01*
X19495829Y-38728225D01*
X16615999Y-38728225D01*
X16615999Y-27100000D01*
X18960960Y-27100000D01*
X18965001Y-27141028D01*
X18965000Y-29136981D01*
X18960960Y-29178000D01*
X18965001Y-29219029D01*
X18965000Y-32077981D01*
X18960960Y-32119000D01*
X18965000Y-32160018D01*
X18977082Y-32282688D01*
X19024828Y-32440086D01*
X19102364Y-32585145D01*
X19206709Y-32712291D01*
X19238579Y-32738446D01*
X25467982Y-38967850D01*
X25304750Y-38970500D01*
X25146000Y-39129250D01*
X25146000Y-39928500D01*
X25970250Y-39928500D01*
X26129000Y-39769750D01*
X26131587Y-39631455D01*
X26461001Y-39960870D01*
X26461001Y-42831251D01*
X26438550Y-42797651D01*
X26106349Y-42465450D01*
X25946627Y-42358727D01*
X25986618Y-42309997D01*
X26066375Y-42160783D01*
X26115488Y-41998877D01*
X26132072Y-41830500D01*
X26132072Y-41380500D01*
X26115488Y-41212123D01*
X26066375Y-41050217D01*
X25988300Y-40904149D01*
X26024537Y-40859994D01*
X26083502Y-40749680D01*
X26119812Y-40629982D01*
X26132072Y-40505500D01*
X26129000Y-40341250D01*
X25970250Y-40182500D01*
X25146000Y-40182500D01*
X25146000Y-40202500D01*
X24892000Y-40202500D01*
X24892000Y-40182500D01*
X24872000Y-40182500D01*
X24872000Y-39928500D01*
X24892000Y-39928500D01*
X24892000Y-39129250D01*
X24733250Y-38970500D01*
X24544000Y-38967428D01*
X24419518Y-38979688D01*
X24299820Y-39015998D01*
X24189506Y-39074963D01*
X24092815Y-39154315D01*
X24013463Y-39251006D01*
X23954498Y-39361320D01*
X23918188Y-39481018D01*
X23909295Y-39571311D01*
X23683017Y-39147976D01*
X23295774Y-38907830D01*
X21485604Y-40718000D01*
X21499747Y-40732143D01*
X21320142Y-40911748D01*
X21305999Y-40897605D01*
X19495829Y-42707775D01*
X19735975Y-43095018D01*
X20229876Y-43355641D01*
X20765132Y-43514901D01*
X21321173Y-43566678D01*
X21876631Y-43508981D01*
X22407599Y-43344820D01*
X22292654Y-43622321D01*
X22201000Y-44083098D01*
X22201000Y-44552902D01*
X22292654Y-45013679D01*
X22472440Y-45447721D01*
X22733450Y-45838349D01*
X23065651Y-46170550D01*
X23456279Y-46431560D01*
X23751001Y-46553638D01*
X23751000Y-54300981D01*
X23746960Y-54342000D01*
X23751000Y-54383018D01*
X23751000Y-54637019D01*
X23751001Y-54637029D01*
X23751001Y-55222362D01*
X23456279Y-55344440D01*
X23065651Y-55605450D01*
X22733450Y-55937651D01*
X22472440Y-56328279D01*
X22292654Y-56762321D01*
X22201000Y-57223098D01*
X22201000Y-57692902D01*
X22292654Y-58153679D01*
X22472440Y-58587721D01*
X22733450Y-58978349D01*
X23065651Y-59310550D01*
X23456279Y-59571560D01*
X23890321Y-59751346D01*
X24351098Y-59843000D01*
X24820902Y-59843000D01*
X25281679Y-59751346D01*
X25715721Y-59571560D01*
X26106349Y-59310550D01*
X26438550Y-58978349D01*
X26699560Y-58587721D01*
X26879346Y-58153679D01*
X26962989Y-57733174D01*
X30457321Y-57733174D01*
X30515018Y-58288632D01*
X30679971Y-58822161D01*
X30928981Y-59288024D01*
X31316224Y-59528170D01*
X33126394Y-57718000D01*
X31316224Y-55907830D01*
X30928981Y-56147976D01*
X30668358Y-56641877D01*
X30509098Y-57177133D01*
X30457321Y-57733174D01*
X26962989Y-57733174D01*
X26971000Y-57692902D01*
X26971000Y-57223098D01*
X26879346Y-56762321D01*
X26699560Y-56328279D01*
X26438550Y-55937651D01*
X26106349Y-55605450D01*
X25729378Y-55353565D01*
X26510040Y-55353565D01*
X26577020Y-55593656D01*
X26826048Y-55710756D01*
X27093135Y-55777023D01*
X27368017Y-55789910D01*
X27640133Y-55748922D01*
X27697571Y-55728225D01*
X31495829Y-55728225D01*
X33305999Y-57538395D01*
X35116169Y-55728225D01*
X34876023Y-55340982D01*
X34382122Y-55080359D01*
X33846866Y-54921099D01*
X33290825Y-54869322D01*
X32735367Y-54927019D01*
X32201838Y-55091972D01*
X31735975Y-55340982D01*
X31495829Y-55728225D01*
X27697571Y-55728225D01*
X27899023Y-55655636D01*
X28014980Y-55593656D01*
X28081960Y-55353565D01*
X27296000Y-54567605D01*
X26510040Y-55353565D01*
X25729378Y-55353565D01*
X25715721Y-55344440D01*
X25421000Y-55222363D01*
X25421000Y-54663501D01*
X25454918Y-54551688D01*
X25463946Y-54460017D01*
X25894090Y-54460017D01*
X25935078Y-54732133D01*
X26028364Y-54991023D01*
X26090344Y-55106980D01*
X26330435Y-55173960D01*
X27116395Y-54388000D01*
X27475605Y-54388000D01*
X28261565Y-55173960D01*
X28501656Y-55106980D01*
X28618756Y-54857952D01*
X28685023Y-54590865D01*
X28697910Y-54315983D01*
X28656922Y-54043867D01*
X28563636Y-53784977D01*
X28501656Y-53669020D01*
X28261565Y-53602040D01*
X27475605Y-54388000D01*
X27116395Y-54388000D01*
X26330435Y-53602040D01*
X26090344Y-53669020D01*
X25973244Y-53918048D01*
X25906977Y-54185135D01*
X25894090Y-54460017D01*
X25463946Y-54460017D01*
X25471040Y-54388000D01*
X25454918Y-54224312D01*
X25421000Y-54112499D01*
X25421000Y-46553637D01*
X25715721Y-46431560D01*
X26061991Y-46200189D01*
X26003463Y-46271506D01*
X25944498Y-46381820D01*
X25908188Y-46501518D01*
X25895928Y-46626000D01*
X25895928Y-48150000D01*
X25908188Y-48274482D01*
X25944498Y-48394180D01*
X26003463Y-48504494D01*
X26082815Y-48601185D01*
X26179506Y-48680537D01*
X26289820Y-48739502D01*
X26409518Y-48775812D01*
X26441292Y-48778941D01*
X26405465Y-48802880D01*
X26210880Y-48997465D01*
X26057995Y-49226273D01*
X25952686Y-49480510D01*
X25899000Y-49750408D01*
X25899000Y-50025592D01*
X25952686Y-50295490D01*
X26057995Y-50549727D01*
X26210880Y-50778535D01*
X26320345Y-50888000D01*
X26210880Y-50997465D01*
X26057995Y-51226273D01*
X25952686Y-51480510D01*
X25899000Y-51750408D01*
X25899000Y-52025592D01*
X25952686Y-52295490D01*
X26057995Y-52549727D01*
X26210880Y-52778535D01*
X26405465Y-52973120D01*
X26634273Y-53126005D01*
X26661401Y-53137242D01*
X26577020Y-53182344D01*
X26510040Y-53422435D01*
X27296000Y-54208395D01*
X28081960Y-53422435D01*
X28014980Y-53182344D01*
X27924467Y-53139782D01*
X27957727Y-53126005D01*
X28186535Y-52973120D01*
X28381120Y-52778535D01*
X28534005Y-52549727D01*
X28639314Y-52295490D01*
X28693000Y-52025592D01*
X28693000Y-51750408D01*
X28639314Y-51480510D01*
X28534005Y-51226273D01*
X28381120Y-50997465D01*
X28271655Y-50888000D01*
X28381120Y-50778535D01*
X28534005Y-50549727D01*
X28639314Y-50295490D01*
X28693000Y-50025592D01*
X28693000Y-49750408D01*
X28639314Y-49480510D01*
X28534005Y-49226273D01*
X28381120Y-48997465D01*
X28186535Y-48802880D01*
X28150708Y-48778941D01*
X28182482Y-48775812D01*
X28302180Y-48739502D01*
X28412494Y-48680537D01*
X28509185Y-48601185D01*
X28588537Y-48504494D01*
X28647502Y-48394180D01*
X28683812Y-48274482D01*
X28696072Y-48150000D01*
X28696072Y-46626000D01*
X28683812Y-46501518D01*
X28647502Y-46381820D01*
X28588537Y-46271506D01*
X28509185Y-46174815D01*
X28412494Y-46095463D01*
X28302180Y-46036498D01*
X28182482Y-46000188D01*
X28131000Y-45995118D01*
X28131000Y-39656018D01*
X28135040Y-39615000D01*
X28118918Y-39451311D01*
X28071172Y-39293913D01*
X27993636Y-39148854D01*
X27915439Y-39053570D01*
X27915437Y-39053568D01*
X27889291Y-39021709D01*
X27857432Y-38995563D01*
X25523869Y-36662000D01*
X27061928Y-36662000D01*
X27074188Y-36786482D01*
X27110498Y-36906180D01*
X27169463Y-37016494D01*
X27248815Y-37113185D01*
X27345506Y-37192537D01*
X27455820Y-37251502D01*
X27575518Y-37287812D01*
X27700000Y-37300072D01*
X28914250Y-37297000D01*
X29073000Y-37138250D01*
X29073000Y-36027000D01*
X29327000Y-36027000D01*
X29327000Y-37138250D01*
X29485750Y-37297000D01*
X30700000Y-37300072D01*
X30824482Y-37287812D01*
X30944180Y-37251502D01*
X31054494Y-37192537D01*
X31151185Y-37113185D01*
X31230537Y-37016494D01*
X31289502Y-36906180D01*
X31325812Y-36786482D01*
X31338072Y-36662000D01*
X31335000Y-36185750D01*
X31176250Y-36027000D01*
X29327000Y-36027000D01*
X29073000Y-36027000D01*
X27223750Y-36027000D01*
X27065000Y-36185750D01*
X27061928Y-36662000D01*
X25523869Y-36662000D01*
X21926187Y-33064320D01*
X21999411Y-33033990D01*
X22072371Y-32985240D01*
X22991719Y-33904590D01*
X23017011Y-33935589D01*
X23049712Y-33962583D01*
X23050568Y-33963439D01*
X23081623Y-33988925D01*
X23143857Y-34040298D01*
X23144916Y-34040868D01*
X23145852Y-34041636D01*
X23217508Y-34079937D01*
X23288693Y-34118249D01*
X23289844Y-34118602D01*
X23290911Y-34119172D01*
X23368683Y-34142764D01*
X23445954Y-34166445D01*
X23447151Y-34166566D01*
X23448310Y-34166918D01*
X23529097Y-34174875D01*
X23568589Y-34178879D01*
X23569786Y-34178882D01*
X23611998Y-34183040D01*
X23651825Y-34179117D01*
X27170614Y-34189193D01*
X27233673Y-34307166D01*
X27360407Y-34461593D01*
X27463473Y-34546176D01*
X27455820Y-34548498D01*
X27345506Y-34607463D01*
X27248815Y-34686815D01*
X27169463Y-34783506D01*
X27110498Y-34893820D01*
X27074188Y-35013518D01*
X27061928Y-35138000D01*
X27065000Y-35614250D01*
X27223750Y-35773000D01*
X29073000Y-35773000D01*
X29073000Y-35753000D01*
X29327000Y-35753000D01*
X29327000Y-35773000D01*
X31176250Y-35773000D01*
X31335000Y-35614250D01*
X31338072Y-35138000D01*
X31325812Y-35013518D01*
X31289502Y-34893820D01*
X31230537Y-34783506D01*
X31151185Y-34686815D01*
X31054494Y-34607463D01*
X30944180Y-34548498D01*
X30936527Y-34546176D01*
X31039593Y-34461593D01*
X31166327Y-34307166D01*
X31260500Y-34130982D01*
X31318491Y-33939811D01*
X31338072Y-33741000D01*
X31338072Y-32979000D01*
X31318491Y-32780189D01*
X31260500Y-32589018D01*
X31166327Y-32412834D01*
X31039593Y-32258407D01*
X30885166Y-32131673D01*
X30807202Y-32090000D01*
X30885166Y-32048327D01*
X31039593Y-31921593D01*
X31166327Y-31767166D01*
X31260500Y-31590982D01*
X31318491Y-31399811D01*
X31338072Y-31201000D01*
X31338072Y-30439000D01*
X31318491Y-30240189D01*
X31260500Y-30049018D01*
X31166327Y-29872834D01*
X31039593Y-29718407D01*
X30885166Y-29591673D01*
X30807202Y-29550000D01*
X30885166Y-29508327D01*
X31039593Y-29381593D01*
X31166327Y-29227166D01*
X31260500Y-29050982D01*
X31318491Y-28859811D01*
X31338072Y-28661000D01*
X31338072Y-27899000D01*
X31318491Y-27700189D01*
X31260500Y-27509018D01*
X31166327Y-27332834D01*
X31039593Y-27178407D01*
X30885166Y-27051673D01*
X30807202Y-27010000D01*
X30885166Y-26968327D01*
X31039593Y-26841593D01*
X31166327Y-26687166D01*
X31260500Y-26510982D01*
X31318491Y-26319811D01*
X31338072Y-26121000D01*
X31338072Y-25359000D01*
X31318491Y-25160189D01*
X31260500Y-24969018D01*
X31166327Y-24792834D01*
X31039593Y-24638407D01*
X30885166Y-24511673D01*
X30708982Y-24417500D01*
X30517811Y-24359509D01*
X30319000Y-24339928D01*
X28081000Y-24339928D01*
X27882189Y-24359509D01*
X27691018Y-24417500D01*
X27514834Y-24511673D01*
X27360407Y-24638407D01*
X27233673Y-24792834D01*
X27173719Y-24905000D01*
X27001018Y-24905000D01*
X26959999Y-24900960D01*
X26918981Y-24905000D01*
X26796311Y-24917082D01*
X26638913Y-24964828D01*
X26493854Y-25042364D01*
X26366709Y-25146709D01*
X26340559Y-25178573D01*
X25272287Y-26246845D01*
X25263932Y-26204842D01*
X25151990Y-25934589D01*
X24989475Y-25691368D01*
X24782632Y-25484525D01*
X24608240Y-25368000D01*
X24782632Y-25251475D01*
X24989475Y-25044632D01*
X25151990Y-24801411D01*
X25263932Y-24531158D01*
X25321000Y-24244260D01*
X25321000Y-23951740D01*
X25263932Y-23664842D01*
X25151990Y-23394589D01*
X24989475Y-23151368D01*
X24782632Y-22944525D01*
X24539411Y-22782010D01*
X24269158Y-22670068D01*
X23982260Y-22613000D01*
X23689740Y-22613000D01*
X23402842Y-22670068D01*
X23132589Y-22782010D01*
X22889368Y-22944525D01*
X22757513Y-23076380D01*
X22735502Y-23003820D01*
X22676537Y-22893506D01*
X22597185Y-22796815D01*
X22500494Y-22717463D01*
X22390180Y-22658498D01*
X22270482Y-22622188D01*
X22146000Y-22609928D01*
X21581750Y-22613000D01*
X21423000Y-22771750D01*
X21423000Y-23971000D01*
X21443000Y-23971000D01*
X21443000Y-24225000D01*
X21423000Y-24225000D01*
X21423000Y-24245000D01*
X21169000Y-24245000D01*
X21169000Y-24225000D01*
X19969750Y-24225000D01*
X19811000Y-24383750D01*
X19807928Y-24948000D01*
X19820188Y-25072482D01*
X19856498Y-25192180D01*
X19915463Y-25302494D01*
X19994815Y-25399185D01*
X20091506Y-25478537D01*
X20201820Y-25537502D01*
X20274380Y-25559513D01*
X20142525Y-25691368D01*
X20050088Y-25829710D01*
X19940913Y-25862828D01*
X19795854Y-25940364D01*
X19668709Y-26044709D01*
X19642558Y-26076574D01*
X19238574Y-26480559D01*
X19206710Y-26506709D01*
X19180562Y-26538571D01*
X19102364Y-26633855D01*
X19024828Y-26778914D01*
X18977082Y-26936312D01*
X18960960Y-27100000D01*
X16615999Y-27100000D01*
X16615999Y-23248000D01*
X19807928Y-23248000D01*
X19811000Y-23812250D01*
X19969750Y-23971000D01*
X21169000Y-23971000D01*
X21169000Y-22771750D01*
X21010250Y-22613000D01*
X20446000Y-22609928D01*
X20321518Y-22622188D01*
X20201820Y-22658498D01*
X20091506Y-22717463D01*
X19994815Y-22796815D01*
X19915463Y-22893506D01*
X19856498Y-23003820D01*
X19820188Y-23123518D01*
X19807928Y-23248000D01*
X16615999Y-23248000D01*
X16615999Y-20215994D01*
X20290203Y-16610000D01*
X33365280Y-16610000D01*
X33824708Y-16655047D01*
G37*
%TD.AperFunction*%
D19*
X33305999Y-19538395D02*
X33320142Y-19524253D01*
X33499747Y-19703858D01*
X33485604Y-19718000D01*
X33655660Y-19888056D01*
X33649948Y-19901845D01*
X33607473Y-19965413D01*
X33553412Y-20019474D01*
X33489844Y-20061949D01*
X33476055Y-20067661D01*
X33305999Y-19897605D01*
X33135943Y-20067661D01*
X33122154Y-20061949D01*
X33058586Y-20019474D01*
X33004525Y-19965413D01*
X32962050Y-19901845D01*
X32956338Y-19888056D01*
X33126394Y-19718000D01*
X32956338Y-19547944D01*
X32962050Y-19534155D01*
X33004525Y-19470587D01*
X33058586Y-19416526D01*
X33122154Y-19374051D01*
X33135943Y-19368339D01*
X33305999Y-19538395D01*
%TA.AperFunction,Conductor*%
D20*
G36*
X33305999Y-19538395D02*
G01*
X33320142Y-19524253D01*
X33499747Y-19703858D01*
X33485604Y-19718000D01*
X33655660Y-19888056D01*
X33649948Y-19901845D01*
X33607473Y-19965413D01*
X33553412Y-20019474D01*
X33489844Y-20061949D01*
X33476055Y-20067661D01*
X33305999Y-19897605D01*
X33135943Y-20067661D01*
X33122154Y-20061949D01*
X33058586Y-20019474D01*
X33004525Y-19965413D01*
X32962050Y-19901845D01*
X32956338Y-19888056D01*
X33126394Y-19718000D01*
X32956338Y-19547944D01*
X32962050Y-19534155D01*
X33004525Y-19470587D01*
X33058586Y-19416526D01*
X33122154Y-19374051D01*
X33135943Y-19368339D01*
X33305999Y-19538395D01*
G37*
%TD.AperFunction*%
%TD*%
M02*
