%TF.GenerationSoftware,KiCad,Pcbnew,(5.1.8)-1*%
%TF.CreationDate,2021-04-24T14:29:12+03:00*%
%TF.ProjectId,lcd_pcb,6c63645f-7063-4622-9e6b-696361645f70,rev?*%
%TF.SameCoordinates,Original*%
%TF.FileFunction,Copper,L2,Bot*%
%TF.FilePolarity,Positive*%
%FSLAX46Y46*%
G04 Gerber Fmt 4.6, Leading zero omitted, Abs format (unit mm)*
G04 Created by KiCad (PCBNEW (5.1.8)-1) date 2021-04-24 14:29:12*
%MOMM*%
%LPD*%
G01*
G04 APERTURE LIST*
%TA.AperFunction,ComponentPad*%
%ADD10C,1.700000*%
%TD*%
%TA.AperFunction,ComponentPad*%
%ADD11C,0.700000*%
%TD*%
%TA.AperFunction,ComponentPad*%
%ADD12C,4.400000*%
%TD*%
%TA.AperFunction,ComponentPad*%
%ADD13C,3.500000*%
%TD*%
%TA.AperFunction,ComponentPad*%
%ADD14R,1.524000X1.524000*%
%TD*%
%TA.AperFunction,ComponentPad*%
%ADD15C,1.524000*%
%TD*%
%TA.AperFunction,ViaPad*%
%ADD16C,0.800000*%
%TD*%
%TA.AperFunction,Conductor*%
%ADD17C,0.400000*%
%TD*%
%TA.AperFunction,Conductor*%
%ADD18C,0.254000*%
%TD*%
%TA.AperFunction,Conductor*%
%ADD19C,0.100000*%
%TD*%
G04 APERTURE END LIST*
%TO.P,J4,1*%
%TO.N,GND*%
%TA.AperFunction,ComponentPad*%
G36*
G01*
X20446000Y-24698000D02*
X20446000Y-23498000D01*
G75*
G02*
X20696000Y-23248000I250000J0D01*
G01*
X21896000Y-23248000D01*
G75*
G02*
X22146000Y-23498000I0J-250000D01*
G01*
X22146000Y-24698000D01*
G75*
G02*
X21896000Y-24948000I-250000J0D01*
G01*
X20696000Y-24948000D01*
G75*
G02*
X20446000Y-24698000I0J250000D01*
G01*
G37*
%TD.AperFunction*%
D10*
%TO.P,J4,3*%
%TO.N,Net-(J1-Pad1)*%
X21296000Y-26638000D03*
%TO.P,J4,5*%
X21296000Y-29178000D03*
%TO.P,J4,7*%
%TO.N,/Res*%
X21296000Y-31718000D03*
%TO.P,J4,2*%
%TO.N,/DP*%
X23836000Y-24098000D03*
%TO.P,J4,4*%
%TO.N,/DM*%
X23836000Y-26638000D03*
%TO.P,J4,6*%
%TO.N,/RX*%
X23836000Y-29178000D03*
%TO.P,J4,8*%
%TO.N,/TX*%
X23836000Y-31718000D03*
%TD*%
%TO.P,J3,5*%
%TO.N,GND*%
%TA.AperFunction,ComponentPad*%
G36*
G01*
X27700000Y-36281000D02*
X27700000Y-35519000D01*
G75*
G02*
X28081000Y-35138000I381000J0D01*
G01*
X30319000Y-35138000D01*
G75*
G02*
X30700000Y-35519000I0J-381000D01*
G01*
X30700000Y-36281000D01*
G75*
G02*
X30319000Y-36662000I-381000J0D01*
G01*
X28081000Y-36662000D01*
G75*
G02*
X27700000Y-36281000I0J381000D01*
G01*
G37*
%TD.AperFunction*%
%TO.P,J3,4*%
%TO.N,/RX*%
%TA.AperFunction,ComponentPad*%
G36*
G01*
X27700000Y-33741000D02*
X27700000Y-32979000D01*
G75*
G02*
X28081000Y-32598000I381000J0D01*
G01*
X30319000Y-32598000D01*
G75*
G02*
X30700000Y-32979000I0J-381000D01*
G01*
X30700000Y-33741000D01*
G75*
G02*
X30319000Y-34122000I-381000J0D01*
G01*
X28081000Y-34122000D01*
G75*
G02*
X27700000Y-33741000I0J381000D01*
G01*
G37*
%TD.AperFunction*%
%TO.P,J3,3*%
%TO.N,/TX*%
%TA.AperFunction,ComponentPad*%
G36*
G01*
X27700000Y-31201000D02*
X27700000Y-30439000D01*
G75*
G02*
X28081000Y-30058000I381000J0D01*
G01*
X30319000Y-30058000D01*
G75*
G02*
X30700000Y-30439000I0J-381000D01*
G01*
X30700000Y-31201000D01*
G75*
G02*
X30319000Y-31582000I-381000J0D01*
G01*
X28081000Y-31582000D01*
G75*
G02*
X27700000Y-31201000I0J381000D01*
G01*
G37*
%TD.AperFunction*%
%TO.P,J3,2*%
%TO.N,Net-(J1-Pad1)*%
%TA.AperFunction,ComponentPad*%
G36*
G01*
X27700000Y-28661000D02*
X27700000Y-27899000D01*
G75*
G02*
X28081000Y-27518000I381000J0D01*
G01*
X30319000Y-27518000D01*
G75*
G02*
X30700000Y-27899000I0J-381000D01*
G01*
X30700000Y-28661000D01*
G75*
G02*
X30319000Y-29042000I-381000J0D01*
G01*
X28081000Y-29042000D01*
G75*
G02*
X27700000Y-28661000I0J381000D01*
G01*
G37*
%TD.AperFunction*%
%TO.P,J3,1*%
%TO.N,/Res*%
%TA.AperFunction,ComponentPad*%
G36*
G01*
X27700000Y-26121000D02*
X27700000Y-25359000D01*
G75*
G02*
X28081000Y-24978000I381000J0D01*
G01*
X30319000Y-24978000D01*
G75*
G02*
X30700000Y-25359000I0J-381000D01*
G01*
X30700000Y-26121000D01*
G75*
G02*
X30319000Y-26502000I-381000J0D01*
G01*
X28081000Y-26502000D01*
G75*
G02*
X27700000Y-26121000I0J381000D01*
G01*
G37*
%TD.AperFunction*%
%TD*%
D11*
%TO.P,J6,1*%
%TO.N,GND*%
X22472725Y-39551274D03*
X21305999Y-39068000D03*
X20139273Y-39551274D03*
X19655999Y-40718000D03*
X20139273Y-41884726D03*
X21305999Y-42368000D03*
X22472725Y-41884726D03*
X22955999Y-40718000D03*
D12*
X21305999Y-40718000D03*
%TD*%
D11*
%TO.P,J5,1*%
%TO.N,GND*%
X34472725Y-56551274D03*
X33305999Y-56068000D03*
X32139273Y-56551274D03*
X31655999Y-57718000D03*
X32139273Y-58884726D03*
X33305999Y-59368000D03*
X34472725Y-58884726D03*
X34955999Y-57718000D03*
D12*
X33305999Y-57718000D03*
%TD*%
D11*
%TO.P,J2,1*%
%TO.N,GND*%
X34472725Y-18551274D03*
X33305999Y-18068000D03*
X32139273Y-18551274D03*
X31655999Y-19718000D03*
X32139273Y-20884726D03*
X33305999Y-21368000D03*
X34472725Y-20884726D03*
X34955999Y-19718000D03*
D12*
X33305999Y-19718000D03*
%TD*%
D13*
%TO.P,J1,5*%
%TO.N,Net-(C1-Pad1)*%
X24586000Y-57458000D03*
X24586000Y-44318000D03*
D14*
%TO.P,J1,1*%
%TO.N,Net-(J1-Pad1)*%
X27296000Y-47388000D03*
D15*
%TO.P,J1,2*%
%TO.N,/DM*%
X27296000Y-49888000D03*
%TO.P,J1,3*%
%TO.N,/DP*%
X27296000Y-51888000D03*
%TO.P,J1,4*%
%TO.N,GND*%
X27296000Y-54388000D03*
%TD*%
D16*
%TO.N,GND*%
X24162000Y-34868000D03*
X34576000Y-23438000D03*
X31020000Y-23438000D03*
X28480000Y-21152000D03*
X25686000Y-18866000D03*
X18320000Y-50616000D03*
X23146000Y-50616000D03*
X19844000Y-58236000D03*
X28988000Y-59760000D03*
X33306000Y-53156000D03*
X33306000Y-47568000D03*
X33560000Y-41726000D03*
X21622000Y-19628000D03*
X32400000Y-26900000D03*
X32400000Y-29500000D03*
X32400000Y-32000000D03*
X32400000Y-34500000D03*
X32400000Y-37400000D03*
X17300000Y-36400000D03*
X17400000Y-29600000D03*
X17300000Y-21900000D03*
%TD*%
D17*
%TO.N,Net-(J1-Pad1)*%
X21296000Y-29178000D02*
X21296000Y-26638000D01*
X22546010Y-23537988D02*
X23235999Y-22847999D01*
X22546010Y-24967246D02*
X22546010Y-23537988D01*
X21296000Y-26217256D02*
X22546010Y-24967246D01*
X23235999Y-22847999D02*
X24436001Y-22847999D01*
X21296000Y-26638000D02*
X21296000Y-26217256D01*
X27000009Y-27580009D02*
X27700000Y-28280000D01*
X27000009Y-25412007D02*
X27000009Y-27580009D01*
X25744001Y-24155999D02*
X27000009Y-25412007D01*
X27700000Y-28280000D02*
X29200000Y-28280000D01*
X24436001Y-22847999D02*
X25744001Y-24155999D01*
%TO.N,/DM*%
X28458001Y-48725999D02*
X28458001Y-44658002D01*
X25799989Y-41999990D02*
X25799989Y-28601989D01*
X28458001Y-44658002D02*
X25799989Y-41999990D01*
X27296000Y-49888000D02*
X28458001Y-48725999D01*
X25799989Y-28601989D02*
X23836000Y-26638000D01*
%TO.N,/DP*%
X24146542Y-24098000D02*
X23836000Y-24098000D01*
X26400000Y-26351458D02*
X24146542Y-24098000D01*
X26400000Y-41751458D02*
X26400000Y-26351458D01*
X29058010Y-50125990D02*
X29058010Y-44409468D01*
X27296000Y-51888000D02*
X29058010Y-50125990D01*
X29058010Y-44409468D02*
X26400000Y-41751458D01*
%TD*%
D18*
%TO.N,GND*%
X33824708Y-16655047D02*
X34233249Y-16778393D01*
X34610044Y-16978738D01*
X34940749Y-17248456D01*
X35212769Y-17577272D01*
X35235927Y-17620102D01*
X35230108Y-17614283D01*
X35116168Y-17728223D01*
X34876023Y-17340982D01*
X34382122Y-17080359D01*
X33846866Y-16921099D01*
X33290825Y-16869322D01*
X32735367Y-16927019D01*
X32201838Y-17091972D01*
X31735975Y-17340982D01*
X31495829Y-17728225D01*
X32108027Y-18340423D01*
X31928422Y-18520028D01*
X31316224Y-17907830D01*
X30928981Y-18147976D01*
X30668358Y-18641877D01*
X30509098Y-19177133D01*
X30457321Y-19733174D01*
X30515018Y-20288632D01*
X30679971Y-20822161D01*
X30928981Y-21288024D01*
X31316224Y-21528170D01*
X31928422Y-20915972D01*
X32108027Y-21095577D01*
X31495829Y-21707775D01*
X31735975Y-22095018D01*
X32229876Y-22355641D01*
X32765132Y-22514901D01*
X33321173Y-22566678D01*
X33876631Y-22508981D01*
X34410160Y-22344028D01*
X34876023Y-22095018D01*
X35116169Y-21707775D01*
X34503971Y-21095577D01*
X34683576Y-20915972D01*
X35295774Y-21528170D01*
X35590001Y-21345707D01*
X35590000Y-56090292D01*
X35295774Y-55907830D01*
X33485604Y-57718000D01*
X33499747Y-57732143D01*
X33320142Y-57911748D01*
X33305999Y-57897605D01*
X31495829Y-59707775D01*
X31735975Y-60095018D01*
X32229876Y-60355641D01*
X32765132Y-60514901D01*
X33321173Y-60566678D01*
X33876631Y-60508981D01*
X34410160Y-60344028D01*
X34876023Y-60095018D01*
X35116168Y-59707777D01*
X35161463Y-59753072D01*
X34893459Y-60081676D01*
X34534564Y-60378579D01*
X34124845Y-60600113D01*
X33679894Y-60737849D01*
X33183705Y-60790000D01*
X18784958Y-60790000D01*
X16615999Y-58714691D01*
X16615999Y-57223098D01*
X22201000Y-57223098D01*
X22201000Y-57692902D01*
X22292654Y-58153679D01*
X22472440Y-58587721D01*
X22733450Y-58978349D01*
X23065651Y-59310550D01*
X23456279Y-59571560D01*
X23890321Y-59751346D01*
X24351098Y-59843000D01*
X24820902Y-59843000D01*
X25281679Y-59751346D01*
X25715721Y-59571560D01*
X26106349Y-59310550D01*
X26438550Y-58978349D01*
X26699560Y-58587721D01*
X26879346Y-58153679D01*
X26962989Y-57733174D01*
X30457321Y-57733174D01*
X30515018Y-58288632D01*
X30679971Y-58822161D01*
X30928981Y-59288024D01*
X31316224Y-59528170D01*
X33126394Y-57718000D01*
X31316224Y-55907830D01*
X30928981Y-56147976D01*
X30668358Y-56641877D01*
X30509098Y-57177133D01*
X30457321Y-57733174D01*
X26962989Y-57733174D01*
X26971000Y-57692902D01*
X26971000Y-57223098D01*
X26879346Y-56762321D01*
X26699560Y-56328279D01*
X26438550Y-55937651D01*
X26106349Y-55605450D01*
X25729378Y-55353565D01*
X26510040Y-55353565D01*
X26577020Y-55593656D01*
X26826048Y-55710756D01*
X27093135Y-55777023D01*
X27368017Y-55789910D01*
X27640133Y-55748922D01*
X27697571Y-55728225D01*
X31495829Y-55728225D01*
X33305999Y-57538395D01*
X35116169Y-55728225D01*
X34876023Y-55340982D01*
X34382122Y-55080359D01*
X33846866Y-54921099D01*
X33290825Y-54869322D01*
X32735367Y-54927019D01*
X32201838Y-55091972D01*
X31735975Y-55340982D01*
X31495829Y-55728225D01*
X27697571Y-55728225D01*
X27899023Y-55655636D01*
X28014980Y-55593656D01*
X28081960Y-55353565D01*
X27296000Y-54567605D01*
X26510040Y-55353565D01*
X25729378Y-55353565D01*
X25715721Y-55344440D01*
X25281679Y-55164654D01*
X24820902Y-55073000D01*
X24351098Y-55073000D01*
X23890321Y-55164654D01*
X23456279Y-55344440D01*
X23065651Y-55605450D01*
X22733450Y-55937651D01*
X22472440Y-56328279D01*
X22292654Y-56762321D01*
X22201000Y-57223098D01*
X16615999Y-57223098D01*
X16615999Y-54460017D01*
X25894090Y-54460017D01*
X25935078Y-54732133D01*
X26028364Y-54991023D01*
X26090344Y-55106980D01*
X26330435Y-55173960D01*
X27116395Y-54388000D01*
X27475605Y-54388000D01*
X28261565Y-55173960D01*
X28501656Y-55106980D01*
X28618756Y-54857952D01*
X28685023Y-54590865D01*
X28697910Y-54315983D01*
X28656922Y-54043867D01*
X28563636Y-53784977D01*
X28501656Y-53669020D01*
X28261565Y-53602040D01*
X27475605Y-54388000D01*
X27116395Y-54388000D01*
X26330435Y-53602040D01*
X26090344Y-53669020D01*
X25973244Y-53918048D01*
X25906977Y-54185135D01*
X25894090Y-54460017D01*
X16615999Y-54460017D01*
X16615999Y-42707775D01*
X19495829Y-42707775D01*
X19735975Y-43095018D01*
X20229876Y-43355641D01*
X20765132Y-43514901D01*
X21321173Y-43566678D01*
X21876631Y-43508981D01*
X22407599Y-43344820D01*
X22292654Y-43622321D01*
X22201000Y-44083098D01*
X22201000Y-44552902D01*
X22292654Y-45013679D01*
X22472440Y-45447721D01*
X22733450Y-45838349D01*
X23065651Y-46170550D01*
X23456279Y-46431560D01*
X23890321Y-46611346D01*
X24351098Y-46703000D01*
X24820902Y-46703000D01*
X25281679Y-46611346D01*
X25715721Y-46431560D01*
X26061991Y-46200189D01*
X26003463Y-46271506D01*
X25944498Y-46381820D01*
X25908188Y-46501518D01*
X25895928Y-46626000D01*
X25895928Y-48150000D01*
X25908188Y-48274482D01*
X25944498Y-48394180D01*
X26003463Y-48504494D01*
X26082815Y-48601185D01*
X26179506Y-48680537D01*
X26289820Y-48739502D01*
X26409518Y-48775812D01*
X26441292Y-48778941D01*
X26405465Y-48802880D01*
X26210880Y-48997465D01*
X26057995Y-49226273D01*
X25952686Y-49480510D01*
X25899000Y-49750408D01*
X25899000Y-50025592D01*
X25952686Y-50295490D01*
X26057995Y-50549727D01*
X26210880Y-50778535D01*
X26320345Y-50888000D01*
X26210880Y-50997465D01*
X26057995Y-51226273D01*
X25952686Y-51480510D01*
X25899000Y-51750408D01*
X25899000Y-52025592D01*
X25952686Y-52295490D01*
X26057995Y-52549727D01*
X26210880Y-52778535D01*
X26405465Y-52973120D01*
X26634273Y-53126005D01*
X26661401Y-53137242D01*
X26577020Y-53182344D01*
X26510040Y-53422435D01*
X27296000Y-54208395D01*
X28081960Y-53422435D01*
X28014980Y-53182344D01*
X27924467Y-53139782D01*
X27957727Y-53126005D01*
X28186535Y-52973120D01*
X28381120Y-52778535D01*
X28534005Y-52549727D01*
X28639314Y-52295490D01*
X28693000Y-52025592D01*
X28693000Y-51750408D01*
X28679969Y-51684898D01*
X29619438Y-50745430D01*
X29651301Y-50719281D01*
X29755646Y-50592136D01*
X29833182Y-50447077D01*
X29880928Y-50289679D01*
X29893010Y-50167009D01*
X29893010Y-50166999D01*
X29897049Y-50125991D01*
X29893010Y-50084983D01*
X29893010Y-44450486D01*
X29897050Y-44409468D01*
X29880928Y-44245779D01*
X29833182Y-44088381D01*
X29755646Y-43943322D01*
X29677449Y-43848038D01*
X29677447Y-43848036D01*
X29651301Y-43816177D01*
X29619442Y-43790031D01*
X27235000Y-41405591D01*
X27235000Y-37096351D01*
X27248815Y-37113185D01*
X27345506Y-37192537D01*
X27455820Y-37251502D01*
X27575518Y-37287812D01*
X27700000Y-37300072D01*
X28914250Y-37297000D01*
X29073000Y-37138250D01*
X29073000Y-36027000D01*
X29327000Y-36027000D01*
X29327000Y-37138250D01*
X29485750Y-37297000D01*
X30700000Y-37300072D01*
X30824482Y-37287812D01*
X30944180Y-37251502D01*
X31054494Y-37192537D01*
X31151185Y-37113185D01*
X31230537Y-37016494D01*
X31289502Y-36906180D01*
X31325812Y-36786482D01*
X31338072Y-36662000D01*
X31335000Y-36185750D01*
X31176250Y-36027000D01*
X29327000Y-36027000D01*
X29073000Y-36027000D01*
X29053000Y-36027000D01*
X29053000Y-35773000D01*
X29073000Y-35773000D01*
X29073000Y-35753000D01*
X29327000Y-35753000D01*
X29327000Y-35773000D01*
X31176250Y-35773000D01*
X31335000Y-35614250D01*
X31338072Y-35138000D01*
X31325812Y-35013518D01*
X31289502Y-34893820D01*
X31230537Y-34783506D01*
X31151185Y-34686815D01*
X31054494Y-34607463D01*
X30944180Y-34548498D01*
X30936527Y-34546176D01*
X31039593Y-34461593D01*
X31166327Y-34307166D01*
X31260500Y-34130982D01*
X31318491Y-33939811D01*
X31338072Y-33741000D01*
X31338072Y-32979000D01*
X31318491Y-32780189D01*
X31260500Y-32589018D01*
X31166327Y-32412834D01*
X31039593Y-32258407D01*
X30885166Y-32131673D01*
X30807202Y-32090000D01*
X30885166Y-32048327D01*
X31039593Y-31921593D01*
X31166327Y-31767166D01*
X31260500Y-31590982D01*
X31318491Y-31399811D01*
X31338072Y-31201000D01*
X31338072Y-30439000D01*
X31318491Y-30240189D01*
X31260500Y-30049018D01*
X31166327Y-29872834D01*
X31039593Y-29718407D01*
X30885166Y-29591673D01*
X30807202Y-29550000D01*
X30885166Y-29508327D01*
X31039593Y-29381593D01*
X31166327Y-29227166D01*
X31260500Y-29050982D01*
X31318491Y-28859811D01*
X31338072Y-28661000D01*
X31338072Y-27899000D01*
X31318491Y-27700189D01*
X31260500Y-27509018D01*
X31166327Y-27332834D01*
X31039593Y-27178407D01*
X30885166Y-27051673D01*
X30807202Y-27010000D01*
X30885166Y-26968327D01*
X31039593Y-26841593D01*
X31166327Y-26687166D01*
X31260500Y-26510982D01*
X31318491Y-26319811D01*
X31338072Y-26121000D01*
X31338072Y-25359000D01*
X31318491Y-25160189D01*
X31260500Y-24969018D01*
X31166327Y-24792834D01*
X31039593Y-24638407D01*
X30885166Y-24511673D01*
X30708982Y-24417500D01*
X30517811Y-24359509D01*
X30319000Y-24339928D01*
X28081000Y-24339928D01*
X27882189Y-24359509D01*
X27691018Y-24417500D01*
X27514834Y-24511673D01*
X27386151Y-24617280D01*
X26363443Y-23594574D01*
X26363439Y-23594569D01*
X25055447Y-22286578D01*
X25029292Y-22254708D01*
X24902147Y-22150363D01*
X24757088Y-22072827D01*
X24599690Y-22025081D01*
X24477020Y-22012999D01*
X24477019Y-22012999D01*
X24436001Y-22008959D01*
X24394983Y-22012999D01*
X23277017Y-22012999D01*
X23235999Y-22008959D01*
X23194980Y-22012999D01*
X23072310Y-22025081D01*
X22914912Y-22072827D01*
X22769853Y-22150363D01*
X22642708Y-22254708D01*
X22616562Y-22286568D01*
X22278508Y-22624623D01*
X22270482Y-22622188D01*
X22146000Y-22609928D01*
X21581750Y-22613000D01*
X21423000Y-22771750D01*
X21423000Y-23971000D01*
X21443000Y-23971000D01*
X21443000Y-24225000D01*
X21423000Y-24225000D01*
X21423000Y-24245000D01*
X21169000Y-24245000D01*
X21169000Y-24225000D01*
X19969750Y-24225000D01*
X19811000Y-24383750D01*
X19807928Y-24948000D01*
X19820188Y-25072482D01*
X19856498Y-25192180D01*
X19915463Y-25302494D01*
X19994815Y-25399185D01*
X20091506Y-25478537D01*
X20201820Y-25537502D01*
X20274380Y-25559513D01*
X20142525Y-25691368D01*
X19980010Y-25934589D01*
X19868068Y-26204842D01*
X19811000Y-26491740D01*
X19811000Y-26784260D01*
X19868068Y-27071158D01*
X19980010Y-27341411D01*
X20142525Y-27584632D01*
X20349368Y-27791475D01*
X20461001Y-27866065D01*
X20461000Y-27949935D01*
X20349368Y-28024525D01*
X20142525Y-28231368D01*
X19980010Y-28474589D01*
X19868068Y-28744842D01*
X19811000Y-29031740D01*
X19811000Y-29324260D01*
X19868068Y-29611158D01*
X19980010Y-29881411D01*
X20142525Y-30124632D01*
X20349368Y-30331475D01*
X20523760Y-30448000D01*
X20349368Y-30564525D01*
X20142525Y-30771368D01*
X19980010Y-31014589D01*
X19868068Y-31284842D01*
X19811000Y-31571740D01*
X19811000Y-31864260D01*
X19868068Y-32151158D01*
X19980010Y-32421411D01*
X20142525Y-32664632D01*
X20349368Y-32871475D01*
X20592589Y-33033990D01*
X20862842Y-33145932D01*
X21149740Y-33203000D01*
X21442260Y-33203000D01*
X21729158Y-33145932D01*
X21999411Y-33033990D01*
X22242632Y-32871475D01*
X22449475Y-32664632D01*
X22566000Y-32490240D01*
X22682525Y-32664632D01*
X22889368Y-32871475D01*
X23132589Y-33033990D01*
X23402842Y-33145932D01*
X23689740Y-33203000D01*
X23982260Y-33203000D01*
X24269158Y-33145932D01*
X24539411Y-33033990D01*
X24782632Y-32871475D01*
X24964990Y-32689117D01*
X24964989Y-41958971D01*
X24964729Y-41961609D01*
X24820902Y-41933000D01*
X24351098Y-41933000D01*
X23890321Y-42024654D01*
X23802881Y-42060873D01*
X23943640Y-41794123D01*
X24102900Y-41258867D01*
X24154677Y-40702826D01*
X24096980Y-40147368D01*
X23932027Y-39613839D01*
X23683017Y-39147976D01*
X23295774Y-38907830D01*
X21485604Y-40718000D01*
X21499747Y-40732143D01*
X21320142Y-40911748D01*
X21305999Y-40897605D01*
X19495829Y-42707775D01*
X16615999Y-42707775D01*
X16615999Y-40733174D01*
X18457321Y-40733174D01*
X18515018Y-41288632D01*
X18679971Y-41822161D01*
X18928981Y-42288024D01*
X19316224Y-42528170D01*
X21126394Y-40718000D01*
X19316224Y-38907830D01*
X18928981Y-39147976D01*
X18668358Y-39641877D01*
X18509098Y-40177133D01*
X18457321Y-40733174D01*
X16615999Y-40733174D01*
X16615999Y-38728225D01*
X19495829Y-38728225D01*
X21305999Y-40538395D01*
X23116169Y-38728225D01*
X22876023Y-38340982D01*
X22382122Y-38080359D01*
X21846866Y-37921099D01*
X21290825Y-37869322D01*
X20735367Y-37927019D01*
X20201838Y-38091972D01*
X19735975Y-38340982D01*
X19495829Y-38728225D01*
X16615999Y-38728225D01*
X16615999Y-23248000D01*
X19807928Y-23248000D01*
X19811000Y-23812250D01*
X19969750Y-23971000D01*
X21169000Y-23971000D01*
X21169000Y-22771750D01*
X21010250Y-22613000D01*
X20446000Y-22609928D01*
X20321518Y-22622188D01*
X20201820Y-22658498D01*
X20091506Y-22717463D01*
X19994815Y-22796815D01*
X19915463Y-22893506D01*
X19856498Y-23003820D01*
X19820188Y-23123518D01*
X19807928Y-23248000D01*
X16615999Y-23248000D01*
X16615999Y-20215994D01*
X20290203Y-16610000D01*
X33365280Y-16610000D01*
X33824708Y-16655047D01*
%TA.AperFunction,Conductor*%
D19*
G36*
X33824708Y-16655047D02*
G01*
X34233249Y-16778393D01*
X34610044Y-16978738D01*
X34940749Y-17248456D01*
X35212769Y-17577272D01*
X35235927Y-17620102D01*
X35230108Y-17614283D01*
X35116168Y-17728223D01*
X34876023Y-17340982D01*
X34382122Y-17080359D01*
X33846866Y-16921099D01*
X33290825Y-16869322D01*
X32735367Y-16927019D01*
X32201838Y-17091972D01*
X31735975Y-17340982D01*
X31495829Y-17728225D01*
X32108027Y-18340423D01*
X31928422Y-18520028D01*
X31316224Y-17907830D01*
X30928981Y-18147976D01*
X30668358Y-18641877D01*
X30509098Y-19177133D01*
X30457321Y-19733174D01*
X30515018Y-20288632D01*
X30679971Y-20822161D01*
X30928981Y-21288024D01*
X31316224Y-21528170D01*
X31928422Y-20915972D01*
X32108027Y-21095577D01*
X31495829Y-21707775D01*
X31735975Y-22095018D01*
X32229876Y-22355641D01*
X32765132Y-22514901D01*
X33321173Y-22566678D01*
X33876631Y-22508981D01*
X34410160Y-22344028D01*
X34876023Y-22095018D01*
X35116169Y-21707775D01*
X34503971Y-21095577D01*
X34683576Y-20915972D01*
X35295774Y-21528170D01*
X35590001Y-21345707D01*
X35590000Y-56090292D01*
X35295774Y-55907830D01*
X33485604Y-57718000D01*
X33499747Y-57732143D01*
X33320142Y-57911748D01*
X33305999Y-57897605D01*
X31495829Y-59707775D01*
X31735975Y-60095018D01*
X32229876Y-60355641D01*
X32765132Y-60514901D01*
X33321173Y-60566678D01*
X33876631Y-60508981D01*
X34410160Y-60344028D01*
X34876023Y-60095018D01*
X35116168Y-59707777D01*
X35161463Y-59753072D01*
X34893459Y-60081676D01*
X34534564Y-60378579D01*
X34124845Y-60600113D01*
X33679894Y-60737849D01*
X33183705Y-60790000D01*
X18784958Y-60790000D01*
X16615999Y-58714691D01*
X16615999Y-57223098D01*
X22201000Y-57223098D01*
X22201000Y-57692902D01*
X22292654Y-58153679D01*
X22472440Y-58587721D01*
X22733450Y-58978349D01*
X23065651Y-59310550D01*
X23456279Y-59571560D01*
X23890321Y-59751346D01*
X24351098Y-59843000D01*
X24820902Y-59843000D01*
X25281679Y-59751346D01*
X25715721Y-59571560D01*
X26106349Y-59310550D01*
X26438550Y-58978349D01*
X26699560Y-58587721D01*
X26879346Y-58153679D01*
X26962989Y-57733174D01*
X30457321Y-57733174D01*
X30515018Y-58288632D01*
X30679971Y-58822161D01*
X30928981Y-59288024D01*
X31316224Y-59528170D01*
X33126394Y-57718000D01*
X31316224Y-55907830D01*
X30928981Y-56147976D01*
X30668358Y-56641877D01*
X30509098Y-57177133D01*
X30457321Y-57733174D01*
X26962989Y-57733174D01*
X26971000Y-57692902D01*
X26971000Y-57223098D01*
X26879346Y-56762321D01*
X26699560Y-56328279D01*
X26438550Y-55937651D01*
X26106349Y-55605450D01*
X25729378Y-55353565D01*
X26510040Y-55353565D01*
X26577020Y-55593656D01*
X26826048Y-55710756D01*
X27093135Y-55777023D01*
X27368017Y-55789910D01*
X27640133Y-55748922D01*
X27697571Y-55728225D01*
X31495829Y-55728225D01*
X33305999Y-57538395D01*
X35116169Y-55728225D01*
X34876023Y-55340982D01*
X34382122Y-55080359D01*
X33846866Y-54921099D01*
X33290825Y-54869322D01*
X32735367Y-54927019D01*
X32201838Y-55091972D01*
X31735975Y-55340982D01*
X31495829Y-55728225D01*
X27697571Y-55728225D01*
X27899023Y-55655636D01*
X28014980Y-55593656D01*
X28081960Y-55353565D01*
X27296000Y-54567605D01*
X26510040Y-55353565D01*
X25729378Y-55353565D01*
X25715721Y-55344440D01*
X25281679Y-55164654D01*
X24820902Y-55073000D01*
X24351098Y-55073000D01*
X23890321Y-55164654D01*
X23456279Y-55344440D01*
X23065651Y-55605450D01*
X22733450Y-55937651D01*
X22472440Y-56328279D01*
X22292654Y-56762321D01*
X22201000Y-57223098D01*
X16615999Y-57223098D01*
X16615999Y-54460017D01*
X25894090Y-54460017D01*
X25935078Y-54732133D01*
X26028364Y-54991023D01*
X26090344Y-55106980D01*
X26330435Y-55173960D01*
X27116395Y-54388000D01*
X27475605Y-54388000D01*
X28261565Y-55173960D01*
X28501656Y-55106980D01*
X28618756Y-54857952D01*
X28685023Y-54590865D01*
X28697910Y-54315983D01*
X28656922Y-54043867D01*
X28563636Y-53784977D01*
X28501656Y-53669020D01*
X28261565Y-53602040D01*
X27475605Y-54388000D01*
X27116395Y-54388000D01*
X26330435Y-53602040D01*
X26090344Y-53669020D01*
X25973244Y-53918048D01*
X25906977Y-54185135D01*
X25894090Y-54460017D01*
X16615999Y-54460017D01*
X16615999Y-42707775D01*
X19495829Y-42707775D01*
X19735975Y-43095018D01*
X20229876Y-43355641D01*
X20765132Y-43514901D01*
X21321173Y-43566678D01*
X21876631Y-43508981D01*
X22407599Y-43344820D01*
X22292654Y-43622321D01*
X22201000Y-44083098D01*
X22201000Y-44552902D01*
X22292654Y-45013679D01*
X22472440Y-45447721D01*
X22733450Y-45838349D01*
X23065651Y-46170550D01*
X23456279Y-46431560D01*
X23890321Y-46611346D01*
X24351098Y-46703000D01*
X24820902Y-46703000D01*
X25281679Y-46611346D01*
X25715721Y-46431560D01*
X26061991Y-46200189D01*
X26003463Y-46271506D01*
X25944498Y-46381820D01*
X25908188Y-46501518D01*
X25895928Y-46626000D01*
X25895928Y-48150000D01*
X25908188Y-48274482D01*
X25944498Y-48394180D01*
X26003463Y-48504494D01*
X26082815Y-48601185D01*
X26179506Y-48680537D01*
X26289820Y-48739502D01*
X26409518Y-48775812D01*
X26441292Y-48778941D01*
X26405465Y-48802880D01*
X26210880Y-48997465D01*
X26057995Y-49226273D01*
X25952686Y-49480510D01*
X25899000Y-49750408D01*
X25899000Y-50025592D01*
X25952686Y-50295490D01*
X26057995Y-50549727D01*
X26210880Y-50778535D01*
X26320345Y-50888000D01*
X26210880Y-50997465D01*
X26057995Y-51226273D01*
X25952686Y-51480510D01*
X25899000Y-51750408D01*
X25899000Y-52025592D01*
X25952686Y-52295490D01*
X26057995Y-52549727D01*
X26210880Y-52778535D01*
X26405465Y-52973120D01*
X26634273Y-53126005D01*
X26661401Y-53137242D01*
X26577020Y-53182344D01*
X26510040Y-53422435D01*
X27296000Y-54208395D01*
X28081960Y-53422435D01*
X28014980Y-53182344D01*
X27924467Y-53139782D01*
X27957727Y-53126005D01*
X28186535Y-52973120D01*
X28381120Y-52778535D01*
X28534005Y-52549727D01*
X28639314Y-52295490D01*
X28693000Y-52025592D01*
X28693000Y-51750408D01*
X28679969Y-51684898D01*
X29619438Y-50745430D01*
X29651301Y-50719281D01*
X29755646Y-50592136D01*
X29833182Y-50447077D01*
X29880928Y-50289679D01*
X29893010Y-50167009D01*
X29893010Y-50166999D01*
X29897049Y-50125991D01*
X29893010Y-50084983D01*
X29893010Y-44450486D01*
X29897050Y-44409468D01*
X29880928Y-44245779D01*
X29833182Y-44088381D01*
X29755646Y-43943322D01*
X29677449Y-43848038D01*
X29677447Y-43848036D01*
X29651301Y-43816177D01*
X29619442Y-43790031D01*
X27235000Y-41405591D01*
X27235000Y-37096351D01*
X27248815Y-37113185D01*
X27345506Y-37192537D01*
X27455820Y-37251502D01*
X27575518Y-37287812D01*
X27700000Y-37300072D01*
X28914250Y-37297000D01*
X29073000Y-37138250D01*
X29073000Y-36027000D01*
X29327000Y-36027000D01*
X29327000Y-37138250D01*
X29485750Y-37297000D01*
X30700000Y-37300072D01*
X30824482Y-37287812D01*
X30944180Y-37251502D01*
X31054494Y-37192537D01*
X31151185Y-37113185D01*
X31230537Y-37016494D01*
X31289502Y-36906180D01*
X31325812Y-36786482D01*
X31338072Y-36662000D01*
X31335000Y-36185750D01*
X31176250Y-36027000D01*
X29327000Y-36027000D01*
X29073000Y-36027000D01*
X29053000Y-36027000D01*
X29053000Y-35773000D01*
X29073000Y-35773000D01*
X29073000Y-35753000D01*
X29327000Y-35753000D01*
X29327000Y-35773000D01*
X31176250Y-35773000D01*
X31335000Y-35614250D01*
X31338072Y-35138000D01*
X31325812Y-35013518D01*
X31289502Y-34893820D01*
X31230537Y-34783506D01*
X31151185Y-34686815D01*
X31054494Y-34607463D01*
X30944180Y-34548498D01*
X30936527Y-34546176D01*
X31039593Y-34461593D01*
X31166327Y-34307166D01*
X31260500Y-34130982D01*
X31318491Y-33939811D01*
X31338072Y-33741000D01*
X31338072Y-32979000D01*
X31318491Y-32780189D01*
X31260500Y-32589018D01*
X31166327Y-32412834D01*
X31039593Y-32258407D01*
X30885166Y-32131673D01*
X30807202Y-32090000D01*
X30885166Y-32048327D01*
X31039593Y-31921593D01*
X31166327Y-31767166D01*
X31260500Y-31590982D01*
X31318491Y-31399811D01*
X31338072Y-31201000D01*
X31338072Y-30439000D01*
X31318491Y-30240189D01*
X31260500Y-30049018D01*
X31166327Y-29872834D01*
X31039593Y-29718407D01*
X30885166Y-29591673D01*
X30807202Y-29550000D01*
X30885166Y-29508327D01*
X31039593Y-29381593D01*
X31166327Y-29227166D01*
X31260500Y-29050982D01*
X31318491Y-28859811D01*
X31338072Y-28661000D01*
X31338072Y-27899000D01*
X31318491Y-27700189D01*
X31260500Y-27509018D01*
X31166327Y-27332834D01*
X31039593Y-27178407D01*
X30885166Y-27051673D01*
X30807202Y-27010000D01*
X30885166Y-26968327D01*
X31039593Y-26841593D01*
X31166327Y-26687166D01*
X31260500Y-26510982D01*
X31318491Y-26319811D01*
X31338072Y-26121000D01*
X31338072Y-25359000D01*
X31318491Y-25160189D01*
X31260500Y-24969018D01*
X31166327Y-24792834D01*
X31039593Y-24638407D01*
X30885166Y-24511673D01*
X30708982Y-24417500D01*
X30517811Y-24359509D01*
X30319000Y-24339928D01*
X28081000Y-24339928D01*
X27882189Y-24359509D01*
X27691018Y-24417500D01*
X27514834Y-24511673D01*
X27386151Y-24617280D01*
X26363443Y-23594574D01*
X26363439Y-23594569D01*
X25055447Y-22286578D01*
X25029292Y-22254708D01*
X24902147Y-22150363D01*
X24757088Y-22072827D01*
X24599690Y-22025081D01*
X24477020Y-22012999D01*
X24477019Y-22012999D01*
X24436001Y-22008959D01*
X24394983Y-22012999D01*
X23277017Y-22012999D01*
X23235999Y-22008959D01*
X23194980Y-22012999D01*
X23072310Y-22025081D01*
X22914912Y-22072827D01*
X22769853Y-22150363D01*
X22642708Y-22254708D01*
X22616562Y-22286568D01*
X22278508Y-22624623D01*
X22270482Y-22622188D01*
X22146000Y-22609928D01*
X21581750Y-22613000D01*
X21423000Y-22771750D01*
X21423000Y-23971000D01*
X21443000Y-23971000D01*
X21443000Y-24225000D01*
X21423000Y-24225000D01*
X21423000Y-24245000D01*
X21169000Y-24245000D01*
X21169000Y-24225000D01*
X19969750Y-24225000D01*
X19811000Y-24383750D01*
X19807928Y-24948000D01*
X19820188Y-25072482D01*
X19856498Y-25192180D01*
X19915463Y-25302494D01*
X19994815Y-25399185D01*
X20091506Y-25478537D01*
X20201820Y-25537502D01*
X20274380Y-25559513D01*
X20142525Y-25691368D01*
X19980010Y-25934589D01*
X19868068Y-26204842D01*
X19811000Y-26491740D01*
X19811000Y-26784260D01*
X19868068Y-27071158D01*
X19980010Y-27341411D01*
X20142525Y-27584632D01*
X20349368Y-27791475D01*
X20461001Y-27866065D01*
X20461000Y-27949935D01*
X20349368Y-28024525D01*
X20142525Y-28231368D01*
X19980010Y-28474589D01*
X19868068Y-28744842D01*
X19811000Y-29031740D01*
X19811000Y-29324260D01*
X19868068Y-29611158D01*
X19980010Y-29881411D01*
X20142525Y-30124632D01*
X20349368Y-30331475D01*
X20523760Y-30448000D01*
X20349368Y-30564525D01*
X20142525Y-30771368D01*
X19980010Y-31014589D01*
X19868068Y-31284842D01*
X19811000Y-31571740D01*
X19811000Y-31864260D01*
X19868068Y-32151158D01*
X19980010Y-32421411D01*
X20142525Y-32664632D01*
X20349368Y-32871475D01*
X20592589Y-33033990D01*
X20862842Y-33145932D01*
X21149740Y-33203000D01*
X21442260Y-33203000D01*
X21729158Y-33145932D01*
X21999411Y-33033990D01*
X22242632Y-32871475D01*
X22449475Y-32664632D01*
X22566000Y-32490240D01*
X22682525Y-32664632D01*
X22889368Y-32871475D01*
X23132589Y-33033990D01*
X23402842Y-33145932D01*
X23689740Y-33203000D01*
X23982260Y-33203000D01*
X24269158Y-33145932D01*
X24539411Y-33033990D01*
X24782632Y-32871475D01*
X24964990Y-32689117D01*
X24964989Y-41958971D01*
X24964729Y-41961609D01*
X24820902Y-41933000D01*
X24351098Y-41933000D01*
X23890321Y-42024654D01*
X23802881Y-42060873D01*
X23943640Y-41794123D01*
X24102900Y-41258867D01*
X24154677Y-40702826D01*
X24096980Y-40147368D01*
X23932027Y-39613839D01*
X23683017Y-39147976D01*
X23295774Y-38907830D01*
X21485604Y-40718000D01*
X21499747Y-40732143D01*
X21320142Y-40911748D01*
X21305999Y-40897605D01*
X19495829Y-42707775D01*
X16615999Y-42707775D01*
X16615999Y-40733174D01*
X18457321Y-40733174D01*
X18515018Y-41288632D01*
X18679971Y-41822161D01*
X18928981Y-42288024D01*
X19316224Y-42528170D01*
X21126394Y-40718000D01*
X19316224Y-38907830D01*
X18928981Y-39147976D01*
X18668358Y-39641877D01*
X18509098Y-40177133D01*
X18457321Y-40733174D01*
X16615999Y-40733174D01*
X16615999Y-38728225D01*
X19495829Y-38728225D01*
X21305999Y-40538395D01*
X23116169Y-38728225D01*
X22876023Y-38340982D01*
X22382122Y-38080359D01*
X21846866Y-37921099D01*
X21290825Y-37869322D01*
X20735367Y-37927019D01*
X20201838Y-38091972D01*
X19735975Y-38340982D01*
X19495829Y-38728225D01*
X16615999Y-38728225D01*
X16615999Y-23248000D01*
X19807928Y-23248000D01*
X19811000Y-23812250D01*
X19969750Y-23971000D01*
X21169000Y-23971000D01*
X21169000Y-22771750D01*
X21010250Y-22613000D01*
X20446000Y-22609928D01*
X20321518Y-22622188D01*
X20201820Y-22658498D01*
X20091506Y-22717463D01*
X19994815Y-22796815D01*
X19915463Y-22893506D01*
X19856498Y-23003820D01*
X19820188Y-23123518D01*
X19807928Y-23248000D01*
X16615999Y-23248000D01*
X16615999Y-20215994D01*
X20290203Y-16610000D01*
X33365280Y-16610000D01*
X33824708Y-16655047D01*
G37*
%TD.AperFunction*%
D18*
X33305999Y-19538395D02*
X33320142Y-19524253D01*
X33499747Y-19703858D01*
X33485604Y-19718000D01*
X33655660Y-19888056D01*
X33649948Y-19901845D01*
X33607473Y-19965413D01*
X33553412Y-20019474D01*
X33489844Y-20061949D01*
X33476055Y-20067661D01*
X33305999Y-19897605D01*
X33135943Y-20067661D01*
X33122154Y-20061949D01*
X33058586Y-20019474D01*
X33004525Y-19965413D01*
X32962050Y-19901845D01*
X32956338Y-19888056D01*
X33126394Y-19718000D01*
X32956338Y-19547944D01*
X32962050Y-19534155D01*
X33004525Y-19470587D01*
X33058586Y-19416526D01*
X33122154Y-19374051D01*
X33135943Y-19368339D01*
X33305999Y-19538395D01*
%TA.AperFunction,Conductor*%
D19*
G36*
X33305999Y-19538395D02*
G01*
X33320142Y-19524253D01*
X33499747Y-19703858D01*
X33485604Y-19718000D01*
X33655660Y-19888056D01*
X33649948Y-19901845D01*
X33607473Y-19965413D01*
X33553412Y-20019474D01*
X33489844Y-20061949D01*
X33476055Y-20067661D01*
X33305999Y-19897605D01*
X33135943Y-20067661D01*
X33122154Y-20061949D01*
X33058586Y-20019474D01*
X33004525Y-19965413D01*
X32962050Y-19901845D01*
X32956338Y-19888056D01*
X33126394Y-19718000D01*
X32956338Y-19547944D01*
X32962050Y-19534155D01*
X33004525Y-19470587D01*
X33058586Y-19416526D01*
X33122154Y-19374051D01*
X33135943Y-19368339D01*
X33305999Y-19538395D01*
G37*
%TD.AperFunction*%
%TD*%
M02*
