%TF.GenerationSoftware,KiCad,Pcbnew,(5.1.8)-1*%
%TF.CreationDate,2021-04-24T14:29:12+03:00*%
%TF.ProjectId,lcd_pcb,6c63645f-7063-4622-9e6b-696361645f70,rev?*%
%TF.SameCoordinates,Original*%
%TF.FileFunction,Legend,Top*%
%TF.FilePolarity,Positive*%
%FSLAX46Y46*%
G04 Gerber Fmt 4.6, Leading zero omitted, Abs format (unit mm)*
G04 Created by KiCad (PCBNEW (5.1.8)-1) date 2021-04-24 14:29:12*
%MOMM*%
%LPD*%
G01*
G04 APERTURE LIST*
%ADD10C,0.150000*%
%ADD11C,0.120000*%
%ADD12C,1.700000*%
%ADD13C,0.700000*%
%ADD14C,4.400000*%
%ADD15C,3.500000*%
%ADD16R,1.524000X1.524000*%
%ADD17C,1.524000*%
G04 APERTURE END LIST*
D10*
X35186880Y-53115547D02*
X35139261Y-53210785D01*
X35044023Y-53258404D01*
X34186880Y-53258404D01*
X35139261Y-52306023D02*
X35186880Y-52401261D01*
X35186880Y-52591738D01*
X35139261Y-52686976D01*
X35091642Y-52734595D01*
X34996404Y-52782214D01*
X34710690Y-52782214D01*
X34615452Y-52734595D01*
X34567833Y-52686976D01*
X34520214Y-52591738D01*
X34520214Y-52401261D01*
X34567833Y-52306023D01*
X35186880Y-51448880D02*
X34186880Y-51448880D01*
X35139261Y-51448880D02*
X35186880Y-51544119D01*
X35186880Y-51734595D01*
X35139261Y-51829833D01*
X35091642Y-51877452D01*
X34996404Y-51925071D01*
X34710690Y-51925071D01*
X34615452Y-51877452D01*
X34567833Y-51829833D01*
X34520214Y-51734595D01*
X34520214Y-51544119D01*
X34567833Y-51448880D01*
X35282119Y-51210785D02*
X35282119Y-50448880D01*
X34520214Y-50210785D02*
X35520214Y-50210785D01*
X34567833Y-50210785D02*
X34520214Y-50115547D01*
X34520214Y-49925071D01*
X34567833Y-49829833D01*
X34615452Y-49782214D01*
X34710690Y-49734595D01*
X34996404Y-49734595D01*
X35091642Y-49782214D01*
X35139261Y-49829833D01*
X35186880Y-49925071D01*
X35186880Y-50115547D01*
X35139261Y-50210785D01*
X35139261Y-48877452D02*
X35186880Y-48972690D01*
X35186880Y-49163166D01*
X35139261Y-49258404D01*
X35091642Y-49306023D01*
X34996404Y-49353642D01*
X34710690Y-49353642D01*
X34615452Y-49306023D01*
X34567833Y-49258404D01*
X34520214Y-49163166D01*
X34520214Y-48972690D01*
X34567833Y-48877452D01*
X35186880Y-48448880D02*
X34186880Y-48448880D01*
X34567833Y-48448880D02*
X34520214Y-48353642D01*
X34520214Y-48163166D01*
X34567833Y-48067928D01*
X34615452Y-48020309D01*
X34710690Y-47972690D01*
X34996404Y-47972690D01*
X35091642Y-48020309D01*
X35139261Y-48067928D01*
X35186880Y-48163166D01*
X35186880Y-48353642D01*
X35139261Y-48448880D01*
X35282119Y-47782214D02*
X35282119Y-47020309D01*
X34520214Y-46877452D02*
X35186880Y-46639357D01*
X34520214Y-46401261D01*
X35186880Y-45496500D02*
X35186880Y-46067928D01*
X35186880Y-45782214D02*
X34186880Y-45782214D01*
X34329738Y-45877452D01*
X34424976Y-45972690D01*
X34472595Y-46067928D01*
X35091642Y-45067928D02*
X35139261Y-45020309D01*
X35186880Y-45067928D01*
X35139261Y-45115547D01*
X35091642Y-45067928D01*
X35186880Y-45067928D01*
X34186880Y-44686976D02*
X34186880Y-44067928D01*
X34567833Y-44401261D01*
X34567833Y-44258404D01*
X34615452Y-44163166D01*
X34663071Y-44115547D01*
X34758309Y-44067928D01*
X34996404Y-44067928D01*
X35091642Y-44115547D01*
X35139261Y-44163166D01*
X35186880Y-44258404D01*
X35186880Y-44544119D01*
X35139261Y-44639357D01*
X35091642Y-44686976D01*
X31966833Y-35534000D02*
X31900166Y-35500666D01*
X31800166Y-35500666D01*
X31700166Y-35534000D01*
X31633500Y-35600666D01*
X31600166Y-35667333D01*
X31566833Y-35800666D01*
X31566833Y-35900666D01*
X31600166Y-36034000D01*
X31633500Y-36100666D01*
X31700166Y-36167333D01*
X31800166Y-36200666D01*
X31866833Y-36200666D01*
X31966833Y-36167333D01*
X32000166Y-36134000D01*
X32000166Y-35900666D01*
X31866833Y-35900666D01*
X32300166Y-35734000D02*
X32300166Y-36200666D01*
X32300166Y-35800666D02*
X32333500Y-35767333D01*
X32400166Y-35734000D01*
X32500166Y-35734000D01*
X32566833Y-35767333D01*
X32600166Y-35834000D01*
X32600166Y-36200666D01*
X33233500Y-36200666D02*
X33233500Y-35500666D01*
X33233500Y-36167333D02*
X33166833Y-36200666D01*
X33033500Y-36200666D01*
X32966833Y-36167333D01*
X32933500Y-36134000D01*
X32900166Y-36067333D01*
X32900166Y-35867333D01*
X32933500Y-35800666D01*
X32966833Y-35767333D01*
X33033500Y-35734000D01*
X33166833Y-35734000D01*
X33233500Y-35767333D01*
X32000166Y-33660666D02*
X31766833Y-33327333D01*
X31600166Y-33660666D02*
X31600166Y-32960666D01*
X31866833Y-32960666D01*
X31933500Y-32994000D01*
X31966833Y-33027333D01*
X32000166Y-33094000D01*
X32000166Y-33194000D01*
X31966833Y-33260666D01*
X31933500Y-33294000D01*
X31866833Y-33327333D01*
X31600166Y-33327333D01*
X32233500Y-33660666D02*
X32600166Y-33194000D01*
X32233500Y-33194000D02*
X32600166Y-33660666D01*
X31500166Y-30420666D02*
X31900166Y-30420666D01*
X31700166Y-31120666D02*
X31700166Y-30420666D01*
X32066833Y-31120666D02*
X32433500Y-30654000D01*
X32066833Y-30654000D02*
X32433500Y-31120666D01*
X31600166Y-28314000D02*
X32133500Y-28314000D01*
X31866833Y-28580666D02*
X31866833Y-28047333D01*
X32800166Y-27880666D02*
X32466833Y-27880666D01*
X32433500Y-28214000D01*
X32466833Y-28180666D01*
X32533500Y-28147333D01*
X32700166Y-28147333D01*
X32766833Y-28180666D01*
X32800166Y-28214000D01*
X32833500Y-28280666D01*
X32833500Y-28447333D01*
X32800166Y-28514000D01*
X32766833Y-28547333D01*
X32700166Y-28580666D01*
X32533500Y-28580666D01*
X32466833Y-28547333D01*
X32433500Y-28514000D01*
X33033500Y-27880666D02*
X33266833Y-28580666D01*
X33500166Y-27880666D01*
X32000166Y-26040666D02*
X31766833Y-25707333D01*
X31600166Y-26040666D02*
X31600166Y-25340666D01*
X31866833Y-25340666D01*
X31933500Y-25374000D01*
X31966833Y-25407333D01*
X32000166Y-25474000D01*
X32000166Y-25574000D01*
X31966833Y-25640666D01*
X31933500Y-25674000D01*
X31866833Y-25707333D01*
X31600166Y-25707333D01*
X32566833Y-26007333D02*
X32500166Y-26040666D01*
X32366833Y-26040666D01*
X32300166Y-26007333D01*
X32266833Y-25940666D01*
X32266833Y-25674000D01*
X32300166Y-25607333D01*
X32366833Y-25574000D01*
X32500166Y-25574000D01*
X32566833Y-25607333D01*
X32600166Y-25674000D01*
X32600166Y-25740666D01*
X32266833Y-25807333D01*
X32866833Y-26007333D02*
X32933500Y-26040666D01*
X33066833Y-26040666D01*
X33133500Y-26007333D01*
X33166833Y-25940666D01*
X33166833Y-25907333D01*
X33133500Y-25840666D01*
X33066833Y-25807333D01*
X32966833Y-25807333D01*
X32900166Y-25774000D01*
X32866833Y-25707333D01*
X32866833Y-25674000D01*
X32900166Y-25607333D01*
X32966833Y-25574000D01*
X33066833Y-25574000D01*
X33133500Y-25607333D01*
D11*
%TO.C,C1*%
X24509000Y-40971080D02*
X24509000Y-40689920D01*
X25529000Y-40971080D02*
X25529000Y-40689920D01*
%TO.C,J4*%
X18006000Y-18888000D02*
X27126000Y-18888000D01*
X27126000Y-18888000D02*
X27126000Y-36928000D01*
X27126000Y-36928000D02*
X18006000Y-36928000D01*
X18006000Y-36928000D02*
X18006000Y-18888000D01*
X18006000Y-25858000D02*
X19316000Y-25858000D01*
X19316000Y-25858000D02*
X19316000Y-20188000D01*
X19316000Y-20188000D02*
X25816000Y-20188000D01*
X25816000Y-20188000D02*
X25816000Y-35628000D01*
X25816000Y-35628000D02*
X19316000Y-35628000D01*
X19316000Y-35628000D02*
X19316000Y-29958000D01*
X19316000Y-29958000D02*
X19316000Y-29958000D01*
X19316000Y-29958000D02*
X18006000Y-29958000D01*
X17616000Y-24098000D02*
X16616000Y-23598000D01*
X16616000Y-23598000D02*
X16616000Y-24598000D01*
X16616000Y-24598000D02*
X17616000Y-24098000D01*
%TO.C,J1*%
X22736000Y-43528000D02*
X14196000Y-43528000D01*
X14196000Y-43528000D02*
X14196000Y-58248000D01*
X22736000Y-58248000D02*
X14196000Y-58248000D01*
X28416000Y-43528000D02*
X28416000Y-58248000D01*
X28416000Y-43528000D02*
X26436000Y-43528000D01*
X26436000Y-58248000D02*
X28416000Y-58248000D01*
X29296000Y-46888000D02*
X28796000Y-47388000D01*
X28796000Y-47388000D02*
X29296000Y-47888000D01*
X29296000Y-47888000D02*
X29296000Y-46888000D01*
%TO.C,C1*%
D10*
X26836642Y-40933666D02*
X26884261Y-40981285D01*
X26931880Y-41124142D01*
X26931880Y-41219380D01*
X26884261Y-41362238D01*
X26789023Y-41457476D01*
X26693785Y-41505095D01*
X26503309Y-41552714D01*
X26360452Y-41552714D01*
X26169976Y-41505095D01*
X26074738Y-41457476D01*
X25979500Y-41362238D01*
X25931880Y-41219380D01*
X25931880Y-41124142D01*
X25979500Y-40981285D01*
X26027119Y-40933666D01*
X26931880Y-39981285D02*
X26931880Y-40552714D01*
X26931880Y-40267000D02*
X25931880Y-40267000D01*
X26074738Y-40362238D01*
X26169976Y-40457476D01*
X26217595Y-40552714D01*
%TO.C,J4*%
X22232666Y-17048380D02*
X22232666Y-17762666D01*
X22185047Y-17905523D01*
X22089809Y-18000761D01*
X21946952Y-18048380D01*
X21851714Y-18048380D01*
X23137428Y-17381714D02*
X23137428Y-18048380D01*
X22899333Y-17000761D02*
X22661238Y-17715047D01*
X23280285Y-17715047D01*
%TO.C,J3*%
X28866666Y-37892380D02*
X28866666Y-38606666D01*
X28819047Y-38749523D01*
X28723809Y-38844761D01*
X28580952Y-38892380D01*
X28485714Y-38892380D01*
X29247619Y-37892380D02*
X29866666Y-37892380D01*
X29533333Y-38273333D01*
X29676190Y-38273333D01*
X29771428Y-38320952D01*
X29819047Y-38368571D01*
X29866666Y-38463809D01*
X29866666Y-38701904D01*
X29819047Y-38797142D01*
X29771428Y-38844761D01*
X29676190Y-38892380D01*
X29390476Y-38892380D01*
X29295238Y-38844761D01*
X29247619Y-38797142D01*
%TO.C,J1*%
X30178666Y-45242380D02*
X30178666Y-45956666D01*
X30131047Y-46099523D01*
X30035809Y-46194761D01*
X29892952Y-46242380D01*
X29797714Y-46242380D01*
X31178666Y-46242380D02*
X30607238Y-46242380D01*
X30892952Y-46242380D02*
X30892952Y-45242380D01*
X30797714Y-45385238D01*
X30702476Y-45480476D01*
X30607238Y-45528095D01*
%TD*%
%LPC*%
%TO.C,C1*%
G36*
G01*
X25269000Y-40505500D02*
X24769000Y-40505500D01*
G75*
G02*
X24544000Y-40280500I0J225000D01*
G01*
X24544000Y-39830500D01*
G75*
G02*
X24769000Y-39605500I225000J0D01*
G01*
X25269000Y-39605500D01*
G75*
G02*
X25494000Y-39830500I0J-225000D01*
G01*
X25494000Y-40280500D01*
G75*
G02*
X25269000Y-40505500I-225000J0D01*
G01*
G37*
G36*
G01*
X25269000Y-42055500D02*
X24769000Y-42055500D01*
G75*
G02*
X24544000Y-41830500I0J225000D01*
G01*
X24544000Y-41380500D01*
G75*
G02*
X24769000Y-41155500I225000J0D01*
G01*
X25269000Y-41155500D01*
G75*
G02*
X25494000Y-41380500I0J-225000D01*
G01*
X25494000Y-41830500D01*
G75*
G02*
X25269000Y-42055500I-225000J0D01*
G01*
G37*
%TD*%
%TO.C,J4*%
G36*
G01*
X20446000Y-24698000D02*
X20446000Y-23498000D01*
G75*
G02*
X20696000Y-23248000I250000J0D01*
G01*
X21896000Y-23248000D01*
G75*
G02*
X22146000Y-23498000I0J-250000D01*
G01*
X22146000Y-24698000D01*
G75*
G02*
X21896000Y-24948000I-250000J0D01*
G01*
X20696000Y-24948000D01*
G75*
G02*
X20446000Y-24698000I0J250000D01*
G01*
G37*
D12*
X21296000Y-26638000D03*
X21296000Y-29178000D03*
X21296000Y-31718000D03*
X23836000Y-24098000D03*
X23836000Y-26638000D03*
X23836000Y-29178000D03*
X23836000Y-31718000D03*
%TD*%
%TO.C,J3*%
G36*
G01*
X27700000Y-36281000D02*
X27700000Y-35519000D01*
G75*
G02*
X28081000Y-35138000I381000J0D01*
G01*
X30319000Y-35138000D01*
G75*
G02*
X30700000Y-35519000I0J-381000D01*
G01*
X30700000Y-36281000D01*
G75*
G02*
X30319000Y-36662000I-381000J0D01*
G01*
X28081000Y-36662000D01*
G75*
G02*
X27700000Y-36281000I0J381000D01*
G01*
G37*
G36*
G01*
X27700000Y-33741000D02*
X27700000Y-32979000D01*
G75*
G02*
X28081000Y-32598000I381000J0D01*
G01*
X30319000Y-32598000D01*
G75*
G02*
X30700000Y-32979000I0J-381000D01*
G01*
X30700000Y-33741000D01*
G75*
G02*
X30319000Y-34122000I-381000J0D01*
G01*
X28081000Y-34122000D01*
G75*
G02*
X27700000Y-33741000I0J381000D01*
G01*
G37*
G36*
G01*
X27700000Y-31201000D02*
X27700000Y-30439000D01*
G75*
G02*
X28081000Y-30058000I381000J0D01*
G01*
X30319000Y-30058000D01*
G75*
G02*
X30700000Y-30439000I0J-381000D01*
G01*
X30700000Y-31201000D01*
G75*
G02*
X30319000Y-31582000I-381000J0D01*
G01*
X28081000Y-31582000D01*
G75*
G02*
X27700000Y-31201000I0J381000D01*
G01*
G37*
G36*
G01*
X27700000Y-28661000D02*
X27700000Y-27899000D01*
G75*
G02*
X28081000Y-27518000I381000J0D01*
G01*
X30319000Y-27518000D01*
G75*
G02*
X30700000Y-27899000I0J-381000D01*
G01*
X30700000Y-28661000D01*
G75*
G02*
X30319000Y-29042000I-381000J0D01*
G01*
X28081000Y-29042000D01*
G75*
G02*
X27700000Y-28661000I0J381000D01*
G01*
G37*
G36*
G01*
X27700000Y-26121000D02*
X27700000Y-25359000D01*
G75*
G02*
X28081000Y-24978000I381000J0D01*
G01*
X30319000Y-24978000D01*
G75*
G02*
X30700000Y-25359000I0J-381000D01*
G01*
X30700000Y-26121000D01*
G75*
G02*
X30319000Y-26502000I-381000J0D01*
G01*
X28081000Y-26502000D01*
G75*
G02*
X27700000Y-26121000I0J381000D01*
G01*
G37*
%TD*%
D13*
%TO.C,J6*%
X22472725Y-39551274D03*
X21305999Y-39068000D03*
X20139273Y-39551274D03*
X19655999Y-40718000D03*
X20139273Y-41884726D03*
X21305999Y-42368000D03*
X22472725Y-41884726D03*
X22955999Y-40718000D03*
D14*
X21305999Y-40718000D03*
%TD*%
D13*
%TO.C,J5*%
X34472725Y-56551274D03*
X33305999Y-56068000D03*
X32139273Y-56551274D03*
X31655999Y-57718000D03*
X32139273Y-58884726D03*
X33305999Y-59368000D03*
X34472725Y-58884726D03*
X34955999Y-57718000D03*
D14*
X33305999Y-57718000D03*
%TD*%
D13*
%TO.C,J2*%
X34472725Y-18551274D03*
X33305999Y-18068000D03*
X32139273Y-18551274D03*
X31655999Y-19718000D03*
X32139273Y-20884726D03*
X33305999Y-21368000D03*
X34472725Y-20884726D03*
X34955999Y-19718000D03*
D14*
X33305999Y-19718000D03*
%TD*%
D15*
%TO.C,J1*%
X24586000Y-57458000D03*
X24586000Y-44318000D03*
D16*
X27296000Y-47388000D03*
D17*
X27296000Y-49888000D03*
X27296000Y-51888000D03*
X27296000Y-54388000D03*
%TD*%
M02*
