M48
METRIC
T1C0.400
T2C0.762
T3C0.920
T4C1.000
T5C2.200
T6C2.300
%
G90
G05
T1
X17.3Y21.9
X17.3Y36.4
X17.4Y29.6
X18.32Y50.616
X19.844Y58.236
X21.622Y19.628
X23.146Y50.616
X24.162Y34.868
X25.686Y18.866
X28.48Y21.152
X28.988Y59.76
X31.02Y23.438
X32.4Y26.9
X32.4Y29.5
X32.4Y32.0
X32.4Y34.5
X32.4Y37.4
X33.306Y47.568
X33.306Y53.156
X33.56Y41.726
X34.576Y23.438
X31.656Y57.718
X32.139Y56.551
X32.139Y58.885
X33.306Y56.068
X33.306Y59.368
X34.473Y56.551
X34.473Y58.885
X34.956Y57.718
X19.656Y40.718
X20.139Y39.551
X20.139Y41.885
X21.306Y39.068
X21.306Y42.368
X22.473Y39.551
X22.473Y41.885
X22.956Y40.718
X31.656Y19.718
X32.139Y18.551
X32.139Y20.885
X33.306Y18.068
X33.306Y21.368
X34.473Y18.551
X34.473Y20.885
X34.956Y19.718
T2
X29.2Y25.74
X29.2Y28.28
X29.2Y30.82
X29.2Y33.36
X29.2Y35.9
T3
X27.296Y47.388
X27.296Y49.888
X27.296Y51.888
X27.296Y54.388
T4
X21.296Y24.098
X21.296Y26.638
X21.296Y29.178
X21.296Y31.718
X23.836Y24.098
X23.836Y26.638
X23.836Y29.178
X23.836Y31.718
T5
X33.306Y57.718
X21.306Y40.718
X33.306Y19.718
T6
X24.586Y44.318
X24.586Y57.458
T0
M30
