M48
METRIC
T1C0.400
T2C0.762
T3C0.920
T4C1.000
T5C2.200
T6C2.300
%
G90
G05
T1
X82.75Y75.0
X82.75Y80.0
X82.75Y84.75
X89.25Y68.5
X89.25Y91.5
X93.75Y68.5
X93.75Y91.5
X94.0Y81.25
X96.25Y81.25
X98.25Y68.5
X98.25Y81.25
X98.25Y91.5
X105.75Y75.75
X105.75Y78.75
X107.25Y80.0
X107.5Y78.5
X108.0Y83.75
X81.85Y68.5
X82.333Y67.333
X82.333Y69.667
X83.5Y66.85
X83.5Y70.15
X84.667Y67.333
X84.667Y69.667
X85.15Y68.5
X102.35Y91.5
X102.833Y90.333
X102.833Y92.667
X104.0Y89.85
X104.0Y93.15
X105.167Y90.333
X105.167Y92.667
X105.65Y91.5
X81.85Y91.5
X82.333Y90.333
X82.333Y92.667
X83.5Y89.85
X83.5Y93.15
X84.667Y90.333
X84.667Y92.667
X85.15Y91.5
X102.35Y68.5
X102.833Y67.333
X102.833Y69.667
X104.0Y66.85
X104.0Y70.15
X105.167Y67.333
X105.167Y69.667
X105.65Y68.5
T2
X111.0Y74.89
X111.0Y77.43
X111.0Y79.97
X111.0Y82.51
X111.0Y85.05
T3
X92.0Y76.5
X92.0Y79.0
X92.0Y81.0
X92.0Y83.5
T4
X100.5Y76.21
X100.5Y78.75
X100.5Y81.29
X100.5Y83.83
X103.04Y76.21
X103.04Y78.75
X103.04Y81.29
X103.04Y83.83
T5
X104.0Y91.5
X83.5Y91.5
X104.0Y68.5
X83.5Y68.5
T6
X89.29Y73.43
X89.29Y86.57
T0
M30
